<mxfile host="Electron" agent="Mozilla/5.0 (Windows NT 10.0; Win64; x64) AppleWebKit/537.36 (KHTML, like Gecko) draw.io/28.0.6 Chrome/138.0.7204.100 Electron/37.2.3 Safari/537.36" version="28.0.6" pages="3">
  <diagram id="tn3VTdR_491fZxfX5q6Q" name="垂直拼接移动逻辑">
    <mxGraphModel dx="1847" dy="712" grid="1" gridSize="10" guides="1" tooltips="1" connect="1" arrows="1" fold="1" page="1" pageScale="1" pageWidth="827" pageHeight="1169" math="0" shadow="0">
      <root>
        <mxCell id="0" />
        <mxCell id="1" parent="0" />
        <mxCell id="ok9VO7Pe37TgTpJmJTfm-3" value="" style="edgeStyle=orthogonalEdgeStyle;rounded=0;orthogonalLoop=1;jettySize=auto;html=1;" parent="1" source="ok9VO7Pe37TgTpJmJTfm-1" target="ok9VO7Pe37TgTpJmJTfm-2" edge="1">
          <mxGeometry relative="1" as="geometry" />
        </mxCell>
        <mxCell id="ok9VO7Pe37TgTpJmJTfm-5" value="" style="edgeStyle=orthogonalEdgeStyle;rounded=0;orthogonalLoop=1;jettySize=auto;html=1;" parent="1" source="ok9VO7Pe37TgTpJmJTfm-1" target="ok9VO7Pe37TgTpJmJTfm-4" edge="1">
          <mxGeometry relative="1" as="geometry" />
        </mxCell>
        <mxCell id="ok9VO7Pe37TgTpJmJTfm-1" value="图片移动" style="rounded=0;whiteSpace=wrap;html=1;" parent="1" vertex="1">
          <mxGeometry x="270" y="80" width="120" height="60" as="geometry" />
        </mxCell>
        <mxCell id="ok9VO7Pe37TgTpJmJTfm-8" style="edgeStyle=orthogonalEdgeStyle;rounded=0;orthogonalLoop=1;jettySize=auto;html=1;entryX=0.5;entryY=0;entryDx=0;entryDy=0;" parent="1" source="ok9VO7Pe37TgTpJmJTfm-2" target="ok9VO7Pe37TgTpJmJTfm-6" edge="1">
          <mxGeometry relative="1" as="geometry" />
        </mxCell>
        <mxCell id="ok9VO7Pe37TgTpJmJTfm-10" value="" style="edgeStyle=orthogonalEdgeStyle;rounded=0;orthogonalLoop=1;jettySize=auto;html=1;" parent="1" source="ok9VO7Pe37TgTpJmJTfm-2" target="ok9VO7Pe37TgTpJmJTfm-9" edge="1">
          <mxGeometry relative="1" as="geometry" />
        </mxCell>
        <mxCell id="ok9VO7Pe37TgTpJmJTfm-12" value="" style="edgeStyle=orthogonalEdgeStyle;rounded=0;orthogonalLoop=1;jettySize=auto;html=1;" parent="1" source="ok9VO7Pe37TgTpJmJTfm-2" target="ok9VO7Pe37TgTpJmJTfm-11" edge="1">
          <mxGeometry relative="1" as="geometry" />
        </mxCell>
        <mxCell id="ok9VO7Pe37TgTpJmJTfm-2" value="上移" style="whiteSpace=wrap;html=1;rounded=0;" parent="1" vertex="1">
          <mxGeometry x="-60" y="200" width="120" height="60" as="geometry" />
        </mxCell>
        <mxCell id="ok9VO7Pe37TgTpJmJTfm-14" value="" style="edgeStyle=orthogonalEdgeStyle;rounded=0;orthogonalLoop=1;jettySize=auto;html=1;" parent="1" source="ok9VO7Pe37TgTpJmJTfm-4" target="ok9VO7Pe37TgTpJmJTfm-13" edge="1">
          <mxGeometry relative="1" as="geometry" />
        </mxCell>
        <mxCell id="ok9VO7Pe37TgTpJmJTfm-16" value="" style="edgeStyle=orthogonalEdgeStyle;rounded=0;orthogonalLoop=1;jettySize=auto;html=1;" parent="1" source="ok9VO7Pe37TgTpJmJTfm-4" target="ok9VO7Pe37TgTpJmJTfm-15" edge="1">
          <mxGeometry relative="1" as="geometry" />
        </mxCell>
        <mxCell id="ok9VO7Pe37TgTpJmJTfm-18" value="" style="edgeStyle=orthogonalEdgeStyle;rounded=0;orthogonalLoop=1;jettySize=auto;html=1;" parent="1" source="ok9VO7Pe37TgTpJmJTfm-4" target="ok9VO7Pe37TgTpJmJTfm-17" edge="1">
          <mxGeometry relative="1" as="geometry" />
        </mxCell>
        <mxCell id="ok9VO7Pe37TgTpJmJTfm-4" value="下移" style="whiteSpace=wrap;html=1;rounded=0;" parent="1" vertex="1">
          <mxGeometry x="1020" y="200" width="120" height="60" as="geometry" />
        </mxCell>
        <mxCell id="ok9VO7Pe37TgTpJmJTfm-20" value="" style="edgeStyle=orthogonalEdgeStyle;rounded=0;orthogonalLoop=1;jettySize=auto;html=1;" parent="1" source="ok9VO7Pe37TgTpJmJTfm-6" target="ok9VO7Pe37TgTpJmJTfm-19" edge="1">
          <mxGeometry relative="1" as="geometry" />
        </mxCell>
        <mxCell id="ok9VO7Pe37TgTpJmJTfm-6" value="最上" style="whiteSpace=wrap;html=1;rounded=0;" parent="1" vertex="1">
          <mxGeometry x="-410" y="340" width="120" height="60" as="geometry" />
        </mxCell>
        <mxCell id="ok9VO7Pe37TgTpJmJTfm-22" value="" style="edgeStyle=orthogonalEdgeStyle;rounded=0;orthogonalLoop=1;jettySize=auto;html=1;" parent="1" source="ok9VO7Pe37TgTpJmJTfm-9" target="ok9VO7Pe37TgTpJmJTfm-21" edge="1">
          <mxGeometry relative="1" as="geometry" />
        </mxCell>
        <mxCell id="ok9VO7Pe37TgTpJmJTfm-24" value="" style="edgeStyle=orthogonalEdgeStyle;rounded=0;orthogonalLoop=1;jettySize=auto;html=1;" parent="1" source="ok9VO7Pe37TgTpJmJTfm-9" target="ok9VO7Pe37TgTpJmJTfm-23" edge="1">
          <mxGeometry relative="1" as="geometry">
            <Array as="points">
              <mxPoint x="120" y="370" />
            </Array>
          </mxGeometry>
        </mxCell>
        <mxCell id="ok9VO7Pe37TgTpJmJTfm-9" value="中间" style="whiteSpace=wrap;html=1;rounded=0;" parent="1" vertex="1">
          <mxGeometry x="-60" y="340" width="120" height="60" as="geometry" />
        </mxCell>
        <mxCell id="ok9VO7Pe37TgTpJmJTfm-26" value="" style="edgeStyle=orthogonalEdgeStyle;rounded=0;orthogonalLoop=1;jettySize=auto;html=1;" parent="1" source="ok9VO7Pe37TgTpJmJTfm-11" target="ok9VO7Pe37TgTpJmJTfm-25" edge="1">
          <mxGeometry relative="1" as="geometry" />
        </mxCell>
        <mxCell id="ok9VO7Pe37TgTpJmJTfm-11" value="最下" style="whiteSpace=wrap;html=1;rounded=0;" parent="1" vertex="1">
          <mxGeometry x="260" y="340" width="120" height="60" as="geometry" />
        </mxCell>
        <mxCell id="ok9VO7Pe37TgTpJmJTfm-31" value="" style="edgeStyle=orthogonalEdgeStyle;rounded=0;orthogonalLoop=1;jettySize=auto;html=1;" parent="1" source="ok9VO7Pe37TgTpJmJTfm-13" target="ok9VO7Pe37TgTpJmJTfm-30" edge="1">
          <mxGeometry relative="1" as="geometry" />
        </mxCell>
        <mxCell id="ok9VO7Pe37TgTpJmJTfm-33" value="" style="edgeStyle=orthogonalEdgeStyle;rounded=0;orthogonalLoop=1;jettySize=auto;html=1;" parent="1" source="ok9VO7Pe37TgTpJmJTfm-13" target="ok9VO7Pe37TgTpJmJTfm-32" edge="1">
          <mxGeometry relative="1" as="geometry" />
        </mxCell>
        <mxCell id="ok9VO7Pe37TgTpJmJTfm-13" value="中间" style="whiteSpace=wrap;html=1;rounded=0;" parent="1" vertex="1">
          <mxGeometry x="1020" y="330" width="120" height="60" as="geometry" />
        </mxCell>
        <mxCell id="ok9VO7Pe37TgTpJmJTfm-28" value="" style="edgeStyle=orthogonalEdgeStyle;rounded=0;orthogonalLoop=1;jettySize=auto;html=1;" parent="1" source="ok9VO7Pe37TgTpJmJTfm-15" target="ok9VO7Pe37TgTpJmJTfm-27" edge="1">
          <mxGeometry relative="1" as="geometry" />
        </mxCell>
        <mxCell id="ok9VO7Pe37TgTpJmJTfm-15" value="最上" style="whiteSpace=wrap;html=1;rounded=0;" parent="1" vertex="1">
          <mxGeometry x="650" y="340" width="120" height="60" as="geometry" />
        </mxCell>
        <mxCell id="ok9VO7Pe37TgTpJmJTfm-35" value="" style="edgeStyle=orthogonalEdgeStyle;rounded=0;orthogonalLoop=1;jettySize=auto;html=1;" parent="1" source="ok9VO7Pe37TgTpJmJTfm-17" target="ok9VO7Pe37TgTpJmJTfm-34" edge="1">
          <mxGeometry relative="1" as="geometry" />
        </mxCell>
        <mxCell id="ok9VO7Pe37TgTpJmJTfm-17" value="最下" style="whiteSpace=wrap;html=1;rounded=0;" parent="1" vertex="1">
          <mxGeometry x="1340" y="320" width="120" height="60" as="geometry" />
        </mxCell>
        <mxCell id="ok9VO7Pe37TgTpJmJTfm-37" value="" style="edgeStyle=orthogonalEdgeStyle;rounded=0;orthogonalLoop=1;jettySize=auto;html=1;" parent="1" source="ok9VO7Pe37TgTpJmJTfm-19" target="ok9VO7Pe37TgTpJmJTfm-36" edge="1">
          <mxGeometry relative="1" as="geometry" />
        </mxCell>
        <mxCell id="ok9VO7Pe37TgTpJmJTfm-19" value="下拼接线" style="whiteSpace=wrap;html=1;rounded=0;" parent="1" vertex="1">
          <mxGeometry x="-410" y="479" width="120" height="60" as="geometry" />
        </mxCell>
        <mxCell id="ok9VO7Pe37TgTpJmJTfm-39" value="" style="edgeStyle=orthogonalEdgeStyle;rounded=0;orthogonalLoop=1;jettySize=auto;html=1;" parent="1" source="ok9VO7Pe37TgTpJmJTfm-21" target="ok9VO7Pe37TgTpJmJTfm-38" edge="1">
          <mxGeometry relative="1" as="geometry" />
        </mxCell>
        <mxCell id="ok9VO7Pe37TgTpJmJTfm-21" value="上拼接线" style="whiteSpace=wrap;html=1;rounded=0;" parent="1" vertex="1">
          <mxGeometry x="-190" y="480" width="120" height="60" as="geometry" />
        </mxCell>
        <mxCell id="ok9VO7Pe37TgTpJmJTfm-41" value="" style="edgeStyle=orthogonalEdgeStyle;rounded=0;orthogonalLoop=1;jettySize=auto;html=1;" parent="1" source="ok9VO7Pe37TgTpJmJTfm-23" target="ok9VO7Pe37TgTpJmJTfm-40" edge="1">
          <mxGeometry relative="1" as="geometry" />
        </mxCell>
        <mxCell id="ok9VO7Pe37TgTpJmJTfm-23" value="下拼接线" style="whiteSpace=wrap;html=1;rounded=0;" parent="1" vertex="1">
          <mxGeometry x="60" y="480" width="120" height="60" as="geometry" />
        </mxCell>
        <mxCell id="ok9VO7Pe37TgTpJmJTfm-53" value="" style="edgeStyle=orthogonalEdgeStyle;rounded=0;orthogonalLoop=1;jettySize=auto;html=1;" parent="1" source="ok9VO7Pe37TgTpJmJTfm-25" target="ok9VO7Pe37TgTpJmJTfm-52" edge="1">
          <mxGeometry relative="1" as="geometry" />
        </mxCell>
        <mxCell id="ok9VO7Pe37TgTpJmJTfm-25" value="上拼接线" style="whiteSpace=wrap;html=1;rounded=0;" parent="1" vertex="1">
          <mxGeometry x="260" y="480" width="120" height="60" as="geometry" />
        </mxCell>
        <mxCell id="ok9VO7Pe37TgTpJmJTfm-57" value="" style="edgeStyle=orthogonalEdgeStyle;rounded=0;orthogonalLoop=1;jettySize=auto;html=1;" parent="1" source="ok9VO7Pe37TgTpJmJTfm-27" target="ok9VO7Pe37TgTpJmJTfm-56" edge="1">
          <mxGeometry relative="1" as="geometry" />
        </mxCell>
        <mxCell id="ok9VO7Pe37TgTpJmJTfm-27" value="下拼接线" style="whiteSpace=wrap;html=1;rounded=0;" parent="1" vertex="1">
          <mxGeometry x="650" y="480" width="120" height="60" as="geometry" />
        </mxCell>
        <mxCell id="ok9VO7Pe37TgTpJmJTfm-61" value="" style="edgeStyle=orthogonalEdgeStyle;rounded=0;orthogonalLoop=1;jettySize=auto;html=1;" parent="1" source="ok9VO7Pe37TgTpJmJTfm-30" target="ok9VO7Pe37TgTpJmJTfm-60" edge="1">
          <mxGeometry relative="1" as="geometry" />
        </mxCell>
        <mxCell id="ok9VO7Pe37TgTpJmJTfm-30" value="上拼接线" style="whiteSpace=wrap;html=1;rounded=0;" parent="1" vertex="1">
          <mxGeometry x="870" y="480" width="120" height="60" as="geometry" />
        </mxCell>
        <mxCell id="ok9VO7Pe37TgTpJmJTfm-63" value="" style="edgeStyle=orthogonalEdgeStyle;rounded=0;orthogonalLoop=1;jettySize=auto;html=1;" parent="1" source="ok9VO7Pe37TgTpJmJTfm-32" target="ok9VO7Pe37TgTpJmJTfm-62" edge="1">
          <mxGeometry relative="1" as="geometry" />
        </mxCell>
        <mxCell id="ok9VO7Pe37TgTpJmJTfm-32" value="下拼接线" style="whiteSpace=wrap;html=1;rounded=0;" parent="1" vertex="1">
          <mxGeometry x="1160" y="480" width="120" height="60" as="geometry" />
        </mxCell>
        <mxCell id="ok9VO7Pe37TgTpJmJTfm-65" value="" style="edgeStyle=orthogonalEdgeStyle;rounded=0;orthogonalLoop=1;jettySize=auto;html=1;" parent="1" source="ok9VO7Pe37TgTpJmJTfm-34" target="ok9VO7Pe37TgTpJmJTfm-64" edge="1">
          <mxGeometry relative="1" as="geometry" />
        </mxCell>
        <mxCell id="ok9VO7Pe37TgTpJmJTfm-34" value="上拼接线" style="whiteSpace=wrap;html=1;rounded=0;" parent="1" vertex="1">
          <mxGeometry x="1340" y="480" width="120" height="60" as="geometry" />
        </mxCell>
        <mxCell id="ok9VO7Pe37TgTpJmJTfm-45" style="edgeStyle=orthogonalEdgeStyle;rounded=0;orthogonalLoop=1;jettySize=auto;html=1;" parent="1" source="ok9VO7Pe37TgTpJmJTfm-36" target="ok9VO7Pe37TgTpJmJTfm-42" edge="1">
          <mxGeometry relative="1" as="geometry" />
        </mxCell>
        <mxCell id="ok9VO7Pe37TgTpJmJTfm-36" value="元素下边低于下拼接线&lt;div&gt;不整体移动&lt;/div&gt;" style="whiteSpace=wrap;html=1;rounded=0;" parent="1" vertex="1">
          <mxGeometry x="-415" y="620" width="130" height="60" as="geometry" />
        </mxCell>
        <mxCell id="ok9VO7Pe37TgTpJmJTfm-49" style="edgeStyle=orthogonalEdgeStyle;rounded=0;orthogonalLoop=1;jettySize=auto;html=1;" parent="1" source="ok9VO7Pe37TgTpJmJTfm-38" target="ok9VO7Pe37TgTpJmJTfm-44" edge="1">
          <mxGeometry relative="1" as="geometry" />
        </mxCell>
        <mxCell id="ok9VO7Pe37TgTpJmJTfm-38" value="元素下边低于上拼接线&lt;div&gt;整体上移下方&lt;/div&gt;" style="whiteSpace=wrap;html=1;rounded=0;" parent="1" vertex="1">
          <mxGeometry x="-195" y="620" width="130" height="60" as="geometry" />
        </mxCell>
        <mxCell id="ok9VO7Pe37TgTpJmJTfm-51" style="edgeStyle=orthogonalEdgeStyle;rounded=0;orthogonalLoop=1;jettySize=auto;html=1;" parent="1" source="ok9VO7Pe37TgTpJmJTfm-40" target="ok9VO7Pe37TgTpJmJTfm-50" edge="1">
          <mxGeometry relative="1" as="geometry" />
        </mxCell>
        <mxCell id="ok9VO7Pe37TgTpJmJTfm-40" value="元素下边低于下拼接线&lt;div&gt;整体上移上方&lt;/div&gt;" style="whiteSpace=wrap;html=1;rounded=0;" parent="1" vertex="1">
          <mxGeometry x="50" y="620" width="140" height="60" as="geometry" />
        </mxCell>
        <mxCell id="ok9VO7Pe37TgTpJmJTfm-42" value="&lt;div style=&quot;background-color: rgb(31, 31, 31); font-family: &amp;quot;JetBrains Mono&amp;quot;, Consolas, &amp;quot;Courier New&amp;quot;, monospace, Consolas, &amp;quot;Courier New&amp;quot;, monospace; font-size: 14px; line-height: 19px; white-space-collapse: preserve; color: rgb(204, 204, 204);&quot;&gt;&lt;span style=&quot;background-color: transparent; color: rgb(156, 220, 254);&quot;&gt;currentBottomY&lt;/span&gt;&lt;font style=&quot;background-color: transparent;&quot; color=&quot;#cccccc&quot;&gt; &lt;/font&gt;&lt;span style=&quot;background-color: transparent; color: rgb(212, 212, 212);&quot;&gt;+&lt;/span&gt;&lt;font style=&quot;background-color: transparent;&quot; color=&quot;#cccccc&quot;&gt; &lt;/font&gt;&lt;span style=&quot;background-color: transparent; color: rgb(156, 220, 254);&quot;&gt;deltaY&lt;/span&gt;&lt;span style=&quot;color: rgb(204, 204, 204);&quot;&gt; &lt;/span&gt;&lt;font color=&quot;#d4d4d4&quot;&gt;&amp;gt;=&lt;/font&gt;&lt;span style=&quot;color: rgb(156, 220, 254);&quot;&gt;bottomSplicingLine&lt;/span&gt;&lt;span style=&quot;color: rgb(204, 204, 204);&quot;&gt;-&amp;gt;&lt;/span&gt;&lt;span style=&quot;color: rgb(220, 220, 170);&quot;&gt;line&lt;/span&gt;&lt;span style=&quot;color: rgb(204, 204, 204);&quot;&gt;().&lt;/span&gt;&lt;span style=&quot;color: rgb(220, 220, 170);&quot;&gt;y1&lt;/span&gt;&lt;span style=&quot;color: rgb(204, 204, 204);&quot;&gt;()&lt;/span&gt;&lt;span style=&quot;color: rgb(204, 204, 204);&quot;&gt; &lt;/span&gt;&lt;/div&gt;" style="text;html=1;align=center;verticalAlign=middle;resizable=0;points=[];autosize=1;strokeColor=none;fillColor=none;" parent="1" vertex="1">
          <mxGeometry x="-605" y="740" width="510" height="30" as="geometry" />
        </mxCell>
        <mxCell id="ok9VO7Pe37TgTpJmJTfm-44" value="&lt;div style=&quot;background-color: rgb(31, 31, 31); font-family: &amp;quot;JetBrains Mono&amp;quot;, Consolas, &amp;quot;Courier New&amp;quot;, monospace, Consolas, &amp;quot;Courier New&amp;quot;, monospace; font-size: 14px; line-height: 19px; white-space-collapse: preserve; color: rgb(204, 204, 204);&quot;&gt;&lt;span style=&quot;background-color: transparent; color: rgb(156, 220, 254);&quot;&gt;currentBottomY&lt;/span&gt;&lt;font style=&quot;background-color: transparent;&quot; color=&quot;#cccccc&quot;&gt; &lt;/font&gt;&lt;span style=&quot;background-color: transparent; color: rgb(212, 212, 212);&quot;&gt;+&lt;/span&gt;&lt;font style=&quot;background-color: transparent;&quot; color=&quot;#cccccc&quot;&gt; &lt;/font&gt;&lt;span style=&quot;background-color: transparent; color: rgb(156, 220, 254);&quot;&gt;deltaY&lt;/span&gt;&lt;span style=&quot;color: rgb(204, 204, 204);&quot;&gt; &lt;/span&gt;&lt;font color=&quot;#d4d4d4&quot;&gt;&amp;gt;=&lt;/font&gt;&lt;span style=&quot;color: rgb(156, 220, 254);&quot;&gt;topSplicingLine&lt;/span&gt;&lt;span style=&quot;color: rgb(204, 204, 204);&quot;&gt;-&amp;gt;&lt;/span&gt;&lt;span style=&quot;color: rgb(220, 220, 170);&quot;&gt;line&lt;/span&gt;&lt;span style=&quot;color: rgb(204, 204, 204);&quot;&gt;().&lt;/span&gt;&lt;span style=&quot;color: rgb(220, 220, 170);&quot;&gt;y1&lt;/span&gt;&lt;span style=&quot;color: rgb(204, 204, 204);&quot;&gt;()&lt;/span&gt;&lt;span style=&quot;color: rgb(204, 204, 204);&quot;&gt; &lt;/span&gt;&lt;br&gt;&lt;/div&gt;&lt;div style=&quot;background-color: rgb(31, 31, 31); font-family: &amp;quot;JetBrains Mono&amp;quot;, Consolas, &amp;quot;Courier New&amp;quot;, monospace, Consolas, &amp;quot;Courier New&amp;quot;, monospace; font-size: 14px; line-height: 19px; white-space-collapse: preserve; color: rgb(204, 204, 204);&quot;&gt;&lt;div style=&quot;line-height: 19px;&quot;&gt;&lt;span style=&quot;color: #dcdcaa;&quot;&gt;moveElementsBelow&lt;/span&gt;(&lt;span style=&quot;color: #9cdcfe;&quot;&gt;currentBottomY&lt;/span&gt;, &lt;span style=&quot;color: #9cdcfe;&quot;&gt;deltaY&lt;/span&gt;);&lt;/div&gt;&lt;/div&gt;" style="text;html=1;align=center;verticalAlign=middle;resizable=0;points=[];autosize=1;strokeColor=none;fillColor=none;" parent="1" vertex="1">
          <mxGeometry x="-375" y="830" width="490" height="50" as="geometry" />
        </mxCell>
        <mxCell id="ok9VO7Pe37TgTpJmJTfm-50" value="&lt;div style=&quot;background-color: rgb(31, 31, 31); font-family: &amp;quot;JetBrains Mono&amp;quot;, Consolas, &amp;quot;Courier New&amp;quot;, monospace, Consolas, &amp;quot;Courier New&amp;quot;, monospace; font-size: 14px; line-height: 19px; white-space-collapse: preserve; color: rgb(204, 204, 204);&quot;&gt;&lt;span style=&quot;background-color: transparent; color: rgb(156, 220, 254);&quot;&gt;currentBottomY&lt;/span&gt;&lt;font style=&quot;background-color: transparent;&quot; color=&quot;#cccccc&quot;&gt; &lt;/font&gt;&lt;span style=&quot;background-color: transparent; color: rgb(212, 212, 212);&quot;&gt;+&lt;/span&gt;&lt;font style=&quot;background-color: transparent;&quot; color=&quot;#cccccc&quot;&gt; &lt;/font&gt;&lt;span style=&quot;background-color: transparent; color: rgb(156, 220, 254);&quot;&gt;deltaY&lt;/span&gt;&lt;span style=&quot;color: rgb(204, 204, 204);&quot;&gt; &lt;/span&gt;&lt;font color=&quot;#d4d4d4&quot;&gt;&amp;gt;=&lt;/font&gt;&lt;span style=&quot;color: rgb(156, 220, 254);&quot;&gt;bottomSplicingLine&lt;/span&gt;&lt;span style=&quot;color: rgb(204, 204, 204);&quot;&gt;-&amp;gt;&lt;/span&gt;&lt;span style=&quot;color: rgb(220, 220, 170);&quot;&gt;line&lt;/span&gt;&lt;span style=&quot;color: rgb(204, 204, 204);&quot;&gt;().&lt;/span&gt;&lt;span style=&quot;color: rgb(220, 220, 170);&quot;&gt;y1&lt;/span&gt;&lt;span style=&quot;color: rgb(204, 204, 204);&quot;&gt;()&lt;/span&gt;&lt;span style=&quot;color: rgb(204, 204, 204);&quot;&gt; &lt;/span&gt;&lt;/div&gt;&lt;div style=&quot;background-color: rgb(31, 31, 31); font-family: &amp;quot;JetBrains Mono&amp;quot;, Consolas, &amp;quot;Courier New&amp;quot;, monospace, Consolas, &amp;quot;Courier New&amp;quot;, monospace; font-size: 14px; line-height: 19px; white-space-collapse: preserve; color: rgb(204, 204, 204);&quot;&gt;&lt;div style=&quot;line-height: 19px;&quot;&gt;&lt;span style=&quot;color: rgb(220, 220, 170);&quot;&gt;moveElementsAbove&lt;/span&gt;(&lt;span style=&quot;color: rgb(156, 220, 254);&quot;&gt;currentTopY&lt;/span&gt;&lt;span style=&quot;color: rgb(204, 204, 204);&quot;&gt; &lt;/span&gt;, &lt;span style=&quot;color: #9cdcfe;&quot;&gt;deltaY&lt;/span&gt;);&lt;/div&gt;&lt;/div&gt;" style="text;html=1;align=center;verticalAlign=middle;resizable=0;points=[];autosize=1;strokeColor=none;fillColor=none;" parent="1" vertex="1">
          <mxGeometry x="-135" y="910" width="510" height="50" as="geometry" />
        </mxCell>
        <mxCell id="ok9VO7Pe37TgTpJmJTfm-55" style="edgeStyle=orthogonalEdgeStyle;rounded=0;orthogonalLoop=1;jettySize=auto;html=1;" parent="1" source="ok9VO7Pe37TgTpJmJTfm-52" target="ok9VO7Pe37TgTpJmJTfm-54" edge="1">
          <mxGeometry relative="1" as="geometry" />
        </mxCell>
        <mxCell id="ok9VO7Pe37TgTpJmJTfm-52" value="元素下边低于上拼接线&lt;div&gt;不整体移动&lt;/div&gt;" style="whiteSpace=wrap;html=1;rounded=0;" parent="1" vertex="1">
          <mxGeometry x="255" y="620" width="130" height="60" as="geometry" />
        </mxCell>
        <mxCell id="ok9VO7Pe37TgTpJmJTfm-54" value="&lt;div style=&quot;background-color: rgb(31, 31, 31); font-family: &amp;quot;JetBrains Mono&amp;quot;, Consolas, &amp;quot;Courier New&amp;quot;, monospace, Consolas, &amp;quot;Courier New&amp;quot;, monospace; font-size: 14px; line-height: 19px; white-space-collapse: preserve; color: rgb(204, 204, 204);&quot;&gt;&lt;span style=&quot;background-color: transparent; color: rgb(156, 220, 254);&quot;&gt;currentBottomY&lt;/span&gt;&lt;font style=&quot;background-color: transparent;&quot; color=&quot;#cccccc&quot;&gt; &lt;/font&gt;&lt;span style=&quot;background-color: transparent; color: rgb(212, 212, 212);&quot;&gt;+&lt;/span&gt;&lt;font style=&quot;background-color: transparent;&quot; color=&quot;#cccccc&quot;&gt; &lt;/font&gt;&lt;span style=&quot;background-color: transparent; color: rgb(156, 220, 254);&quot;&gt;deltaY&lt;/span&gt;&lt;span style=&quot;color: rgb(204, 204, 204);&quot;&gt; &lt;/span&gt;&lt;font color=&quot;#d4d4d4&quot;&gt;&amp;gt;=&lt;/font&gt;&lt;span style=&quot;color: rgb(156, 220, 254);&quot;&gt;topSplicingLine&lt;/span&gt;&lt;span style=&quot;color: rgb(204, 204, 204);&quot;&gt;-&amp;gt;&lt;/span&gt;&lt;span style=&quot;color: rgb(220, 220, 170);&quot;&gt;line&lt;/span&gt;&lt;span style=&quot;color: rgb(204, 204, 204);&quot;&gt;().&lt;/span&gt;&lt;span style=&quot;color: rgb(220, 220, 170);&quot;&gt;y1&lt;/span&gt;&lt;span style=&quot;color: rgb(204, 204, 204);&quot;&gt;()&lt;/span&gt;&lt;span style=&quot;color: rgb(204, 204, 204);&quot;&gt; &lt;/span&gt;&lt;/div&gt;" style="text;html=1;align=center;verticalAlign=middle;resizable=0;points=[];autosize=1;strokeColor=none;fillColor=none;" parent="1" vertex="1">
          <mxGeometry x="75" y="730" width="490" height="30" as="geometry" />
        </mxCell>
        <mxCell id="ok9VO7Pe37TgTpJmJTfm-68" style="edgeStyle=orthogonalEdgeStyle;rounded=0;orthogonalLoop=1;jettySize=auto;html=1;" parent="1" source="ok9VO7Pe37TgTpJmJTfm-56" target="ok9VO7Pe37TgTpJmJTfm-67" edge="1">
          <mxGeometry relative="1" as="geometry" />
        </mxCell>
        <mxCell id="ok9VO7Pe37TgTpJmJTfm-56" value="元素上边高于下拼接线&lt;div&gt;不整体移动&lt;/div&gt;" style="whiteSpace=wrap;html=1;rounded=0;" parent="1" vertex="1">
          <mxGeometry x="640" y="620" width="140" height="60" as="geometry" />
        </mxCell>
        <mxCell id="ok9VO7Pe37TgTpJmJTfm-70" style="edgeStyle=orthogonalEdgeStyle;rounded=0;orthogonalLoop=1;jettySize=auto;html=1;" parent="1" source="ok9VO7Pe37TgTpJmJTfm-60" target="ok9VO7Pe37TgTpJmJTfm-69" edge="1">
          <mxGeometry relative="1" as="geometry" />
        </mxCell>
        <mxCell id="ok9VO7Pe37TgTpJmJTfm-60" value="元素上边高于上拼接线&lt;div&gt;整体下移下方&lt;/div&gt;" style="whiteSpace=wrap;html=1;rounded=0;" parent="1" vertex="1">
          <mxGeometry x="865" y="620" width="130" height="60" as="geometry" />
        </mxCell>
        <mxCell id="ok9VO7Pe37TgTpJmJTfm-73" style="edgeStyle=orthogonalEdgeStyle;rounded=0;orthogonalLoop=1;jettySize=auto;html=1;" parent="1" source="ok9VO7Pe37TgTpJmJTfm-62" target="ok9VO7Pe37TgTpJmJTfm-72" edge="1">
          <mxGeometry relative="1" as="geometry" />
        </mxCell>
        <mxCell id="ok9VO7Pe37TgTpJmJTfm-62" value="元素上边高于下拼接线&lt;div&gt;整体下移上方&lt;/div&gt;" style="whiteSpace=wrap;html=1;rounded=0;" parent="1" vertex="1">
          <mxGeometry x="1155" y="620" width="130" height="60" as="geometry" />
        </mxCell>
        <mxCell id="ok9VO7Pe37TgTpJmJTfm-75" style="edgeStyle=orthogonalEdgeStyle;rounded=0;orthogonalLoop=1;jettySize=auto;html=1;" parent="1" source="ok9VO7Pe37TgTpJmJTfm-64" target="ok9VO7Pe37TgTpJmJTfm-74" edge="1">
          <mxGeometry relative="1" as="geometry" />
        </mxCell>
        <mxCell id="ok9VO7Pe37TgTpJmJTfm-64" value="元素上边高于上拼接线&lt;div&gt;不整体移动&lt;/div&gt;" style="whiteSpace=wrap;html=1;rounded=0;" parent="1" vertex="1">
          <mxGeometry x="1336" y="620" width="130" height="60" as="geometry" />
        </mxCell>
        <mxCell id="ok9VO7Pe37TgTpJmJTfm-66" value="" style="endArrow=none;html=1;rounded=0;" parent="1" edge="1">
          <mxGeometry width="50" height="50" relative="1" as="geometry">
            <mxPoint x="250" y="1080" as="sourcePoint" />
            <mxPoint x="630" y="1080" as="targetPoint" />
          </mxGeometry>
        </mxCell>
        <mxCell id="ok9VO7Pe37TgTpJmJTfm-58" value="" style="whiteSpace=wrap;html=1;rounded=0;" parent="1" vertex="1">
          <mxGeometry x="390" y="1040" width="120" height="60" as="geometry" />
        </mxCell>
        <mxCell id="ok9VO7Pe37TgTpJmJTfm-67" value="&lt;div style=&quot;background-color: rgb(31, 31, 31); font-family: &amp;quot;JetBrains Mono&amp;quot;, Consolas, &amp;quot;Courier New&amp;quot;, monospace, Consolas, &amp;quot;Courier New&amp;quot;, monospace; font-size: 14px; line-height: 19px; white-space-collapse: preserve; color: rgb(204, 204, 204);&quot;&gt;&lt;font style=&quot;background-color: transparent;&quot; color=&quot;#cccccc&quot;&gt;&lt;span style=&quot;color: rgb(156, 220, 254);&quot;&gt;currentTopY&lt;/span&gt; &lt;/font&gt;&lt;span style=&quot;color: rgb(212, 212, 212); background-color: transparent;&quot;&gt;+&lt;/span&gt;&lt;font style=&quot;background-color: transparent;&quot; color=&quot;#cccccc&quot;&gt; &lt;/font&gt;&lt;span style=&quot;color: rgb(156, 220, 254); background-color: transparent;&quot;&gt;deltaY&lt;/span&gt;&lt;span style=&quot;color: rgb(204, 204, 204);&quot;&gt; &lt;/span&gt;&lt;span style=&quot;color: rgb(204, 204, 204);&quot;&gt;&lt;font color=&quot;#d4d4d4&quot;&gt;&amp;lt;=&lt;/font&gt;&lt;/span&gt;&lt;span style=&quot;color: rgb(156, 220, 254);&quot;&gt;bottomSplicingLine&lt;/span&gt;&lt;span style=&quot;color: rgb(204, 204, 204);&quot;&gt;-&amp;gt;&lt;/span&gt;&lt;span style=&quot;color: rgb(220, 220, 170);&quot;&gt;line&lt;/span&gt;&lt;span style=&quot;color: rgb(204, 204, 204);&quot;&gt;().&lt;/span&gt;&lt;span style=&quot;color: rgb(220, 220, 170);&quot;&gt;y1&lt;/span&gt;&lt;span style=&quot;color: rgb(204, 204, 204);&quot;&gt;()&lt;/span&gt;&lt;span style=&quot;color: rgb(204, 204, 204);&quot;&gt; &lt;/span&gt;&lt;/div&gt;" style="text;html=1;align=center;verticalAlign=middle;resizable=0;points=[];autosize=1;strokeColor=none;fillColor=none;" parent="1" vertex="1">
          <mxGeometry x="465" y="780" width="490" height="30" as="geometry" />
        </mxCell>
        <mxCell id="ok9VO7Pe37TgTpJmJTfm-69" value="&lt;div style=&quot;background-color: rgb(31, 31, 31); font-family: &amp;quot;JetBrains Mono&amp;quot;, Consolas, &amp;quot;Courier New&amp;quot;, monospace, Consolas, &amp;quot;Courier New&amp;quot;, monospace; font-size: 14px; line-height: 19px; white-space-collapse: preserve; color: rgb(204, 204, 204);&quot;&gt;&lt;span style=&quot;color: rgb(212, 212, 212); background-color: transparent;&quot;&gt;&lt;span style=&quot;color: rgb(156, 220, 254);&quot;&gt;currentTopY&lt;/span&gt;&lt;span style=&quot;color: rgb(204, 204, 204);&quot;&gt; &lt;/span&gt;+&lt;/span&gt;&lt;font style=&quot;background-color: transparent;&quot; color=&quot;#cccccc&quot;&gt; &lt;/font&gt;&lt;span style=&quot;color: rgb(156, 220, 254); background-color: transparent;&quot;&gt;deltaY&lt;/span&gt;&lt;span style=&quot;color: rgb(204, 204, 204);&quot;&gt; &lt;/span&gt;&lt;span style=&quot;color: rgb(204, 204, 204);&quot;&gt;&lt;font color=&quot;#d4d4d4&quot;&gt;&amp;lt;=&lt;/font&gt;&lt;/span&gt;&lt;span style=&quot;color: rgb(156, 220, 254);&quot;&gt;topSplicingLine&lt;/span&gt;&lt;span style=&quot;color: rgb(204, 204, 204);&quot;&gt;-&amp;gt;&lt;/span&gt;&lt;span style=&quot;color: rgb(220, 220, 170);&quot;&gt;line&lt;/span&gt;&lt;span style=&quot;color: rgb(204, 204, 204);&quot;&gt;().&lt;/span&gt;&lt;span style=&quot;color: rgb(220, 220, 170);&quot;&gt;y1&lt;/span&gt;&lt;span style=&quot;color: rgb(204, 204, 204);&quot;&gt;()&lt;/span&gt;&lt;span style=&quot;color: rgb(204, 204, 204);&quot;&gt; &lt;/span&gt;&lt;/div&gt;&lt;div style=&quot;background-color: rgb(31, 31, 31); font-family: &amp;quot;JetBrains Mono&amp;quot;, Consolas, &amp;quot;Courier New&amp;quot;, monospace, Consolas, &amp;quot;Courier New&amp;quot;, monospace; font-size: 14px; line-height: 19px; white-space-collapse: preserve; color: rgb(204, 204, 204);&quot;&gt;&lt;div style=&quot;line-height: 19px;&quot;&gt;&lt;span style=&quot;color: rgb(220, 220, 170);&quot;&gt;moveElementsBelow&lt;/span&gt;(&lt;span style=&quot;color: #9cdcfe;&quot;&gt;currentBottomY&lt;/span&gt;, &lt;span style=&quot;color: #9cdcfe;&quot;&gt;deltaY&lt;/span&gt;);&lt;/div&gt;&lt;/div&gt;" style="text;html=1;align=center;verticalAlign=middle;resizable=0;points=[];autosize=1;strokeColor=none;fillColor=none;" parent="1" vertex="1">
          <mxGeometry x="700" y="870" width="460" height="50" as="geometry" />
        </mxCell>
        <mxCell id="ok9VO7Pe37TgTpJmJTfm-72" value="&lt;div style=&quot;background-color: rgb(31, 31, 31); font-family: &amp;quot;JetBrains Mono&amp;quot;, Consolas, &amp;quot;Courier New&amp;quot;, monospace, Consolas, &amp;quot;Courier New&amp;quot;, monospace; font-size: 14px; line-height: 19px; white-space-collapse: preserve; color: rgb(204, 204, 204);&quot;&gt;&lt;span style=&quot;color: rgb(212, 212, 212); background-color: transparent;&quot;&gt;&lt;span style=&quot;color: rgb(156, 220, 254);&quot;&gt;currentTopY&lt;/span&gt;&lt;span style=&quot;color: rgb(204, 204, 204);&quot;&gt; &lt;/span&gt;+&lt;/span&gt;&lt;font style=&quot;background-color: transparent;&quot; color=&quot;#cccccc&quot;&gt; &lt;/font&gt;&lt;span style=&quot;color: rgb(156, 220, 254); background-color: transparent;&quot;&gt;deltaY&lt;/span&gt;&lt;span style=&quot;color: rgb(204, 204, 204);&quot;&gt; &lt;/span&gt;&lt;span style=&quot;color: rgb(204, 204, 204);&quot;&gt;&lt;font color=&quot;#d4d4d4&quot;&gt;&amp;lt;=&lt;/font&gt;&lt;/span&gt;&lt;span style=&quot;color: rgb(156, 220, 254);&quot;&gt;bottomSplicingLine&lt;/span&gt;&lt;span style=&quot;color: rgb(204, 204, 204);&quot;&gt;-&amp;gt;&lt;/span&gt;&lt;span style=&quot;color: rgb(220, 220, 170);&quot;&gt;line&lt;/span&gt;&lt;span style=&quot;color: rgb(204, 204, 204);&quot;&gt;().&lt;/span&gt;&lt;span style=&quot;color: rgb(220, 220, 170);&quot;&gt;y1&lt;/span&gt;&lt;span style=&quot;color: rgb(204, 204, 204);&quot;&gt;()&lt;/span&gt;&lt;span style=&quot;color: rgb(204, 204, 204);&quot;&gt; &lt;/span&gt;&lt;/div&gt;&lt;div style=&quot;background-color: rgb(31, 31, 31); font-family: &amp;quot;JetBrains Mono&amp;quot;, Consolas, &amp;quot;Courier New&amp;quot;, monospace, Consolas, &amp;quot;Courier New&amp;quot;, monospace; font-size: 14px; line-height: 19px; white-space-collapse: preserve; color: rgb(204, 204, 204);&quot;&gt;&lt;div style=&quot;line-height: 19px;&quot;&gt;&lt;span style=&quot;color: rgb(220, 220, 170); background-color: light-dark(rgb(31, 31, 31), rgb(210, 210, 210));&quot;&gt;moveElementsAbove&lt;/span&gt;(&lt;span style=&quot;color: rgb(156, 220, 254);&quot;&gt;currentTopY&lt;/span&gt;&lt;span style=&quot;color: rgb(204, 204, 204);&quot;&gt; &lt;/span&gt;, &lt;span style=&quot;color: rgb(156, 220, 254);&quot;&gt;deltaY&lt;/span&gt;);&lt;/div&gt;&lt;/div&gt;" style="text;html=1;align=center;verticalAlign=middle;resizable=0;points=[];autosize=1;strokeColor=none;fillColor=none;" parent="1" vertex="1">
          <mxGeometry x="975" y="770" width="490" height="50" as="geometry" />
        </mxCell>
        <mxCell id="ok9VO7Pe37TgTpJmJTfm-74" value="&lt;div style=&quot;background-color: rgb(31, 31, 31); font-family: &amp;quot;JetBrains Mono&amp;quot;, Consolas, &amp;quot;Courier New&amp;quot;, monospace, Consolas, &amp;quot;Courier New&amp;quot;, monospace; font-size: 14px; line-height: 19px; white-space-collapse: preserve; color: rgb(204, 204, 204);&quot;&gt;&lt;font style=&quot;background-color: transparent;&quot; color=&quot;#cccccc&quot;&gt;&lt;span style=&quot;color: rgb(156, 220, 254);&quot;&gt;currentTopY&lt;/span&gt; &lt;/font&gt;&lt;span style=&quot;color: rgb(212, 212, 212); background-color: transparent;&quot;&gt;+&lt;/span&gt;&lt;font style=&quot;background-color: transparent;&quot; color=&quot;#cccccc&quot;&gt; &lt;/font&gt;&lt;span style=&quot;color: rgb(156, 220, 254); background-color: transparent;&quot;&gt;deltaY&lt;/span&gt;&lt;span style=&quot;color: rgb(204, 204, 204);&quot;&gt; &lt;/span&gt;&lt;span style=&quot;color: rgb(204, 204, 204);&quot;&gt;&lt;font color=&quot;#d4d4d4&quot;&gt;&amp;lt;=&lt;/font&gt;&lt;/span&gt;&lt;span style=&quot;color: rgb(156, 220, 254);&quot;&gt;topSplicingLine&lt;/span&gt;&lt;span style=&quot;color: rgb(204, 204, 204);&quot;&gt;-&amp;gt;&lt;/span&gt;&lt;span style=&quot;color: rgb(220, 220, 170);&quot;&gt;line&lt;/span&gt;&lt;span style=&quot;color: rgb(204, 204, 204);&quot;&gt;().&lt;/span&gt;&lt;span style=&quot;color: rgb(220, 220, 170);&quot;&gt;y1&lt;/span&gt;&lt;span style=&quot;color: rgb(204, 204, 204);&quot;&gt;()&lt;/span&gt;&lt;span style=&quot;color: rgb(204, 204, 204);&quot;&gt; &lt;/span&gt;&lt;/div&gt;" style="text;html=1;align=center;verticalAlign=middle;resizable=0;points=[];autosize=1;strokeColor=none;fillColor=none;" parent="1" vertex="1">
          <mxGeometry x="1170" y="900" width="460" height="30" as="geometry" />
        </mxCell>
      </root>
    </mxGraphModel>
  </diagram>
  <diagram id="z4k4Fh-E4nRNE1rffntP" name="水平移动逻辑">
    <mxGraphModel dx="4760" dy="2253" grid="1" gridSize="10" guides="1" tooltips="1" connect="1" arrows="1" fold="1" page="1" pageScale="1" pageWidth="827" pageHeight="1169" math="0" shadow="0">
      <root>
        <mxCell id="0" />
        <mxCell id="1" parent="0" />
        <mxCell id="7r4NAoFOjNJ4OGU_1Jsc-1" value="" style="edgeStyle=orthogonalEdgeStyle;rounded=0;orthogonalLoop=1;jettySize=auto;html=1;" edge="1" parent="1" source="7r4NAoFOjNJ4OGU_1Jsc-3" target="7r4NAoFOjNJ4OGU_1Jsc-7">
          <mxGeometry relative="1" as="geometry" />
        </mxCell>
        <mxCell id="7r4NAoFOjNJ4OGU_1Jsc-2" value="" style="edgeStyle=orthogonalEdgeStyle;rounded=0;orthogonalLoop=1;jettySize=auto;html=1;" edge="1" parent="1" source="7r4NAoFOjNJ4OGU_1Jsc-3" target="7r4NAoFOjNJ4OGU_1Jsc-11">
          <mxGeometry relative="1" as="geometry" />
        </mxCell>
        <mxCell id="7r4NAoFOjNJ4OGU_1Jsc-3" value="图片移动" style="rounded=0;whiteSpace=wrap;html=1;" vertex="1" parent="1">
          <mxGeometry x="1015" y="330" width="120" height="60" as="geometry" />
        </mxCell>
        <mxCell id="7r4NAoFOjNJ4OGU_1Jsc-4" style="edgeStyle=orthogonalEdgeStyle;rounded=0;orthogonalLoop=1;jettySize=auto;html=1;entryX=0.5;entryY=0;entryDx=0;entryDy=0;" edge="1" parent="1" source="7r4NAoFOjNJ4OGU_1Jsc-7" target="7r4NAoFOjNJ4OGU_1Jsc-13">
          <mxGeometry relative="1" as="geometry" />
        </mxCell>
        <mxCell id="7r4NAoFOjNJ4OGU_1Jsc-5" value="" style="edgeStyle=orthogonalEdgeStyle;rounded=0;orthogonalLoop=1;jettySize=auto;html=1;" edge="1" parent="1" source="7r4NAoFOjNJ4OGU_1Jsc-7" target="7r4NAoFOjNJ4OGU_1Jsc-16">
          <mxGeometry relative="1" as="geometry" />
        </mxCell>
        <mxCell id="7r4NAoFOjNJ4OGU_1Jsc-6" value="" style="edgeStyle=orthogonalEdgeStyle;rounded=0;orthogonalLoop=1;jettySize=auto;html=1;" edge="1" parent="1" source="7r4NAoFOjNJ4OGU_1Jsc-7" target="7r4NAoFOjNJ4OGU_1Jsc-18">
          <mxGeometry relative="1" as="geometry" />
        </mxCell>
        <mxCell id="7r4NAoFOjNJ4OGU_1Jsc-7" value="左移" style="whiteSpace=wrap;html=1;rounded=0;" vertex="1" parent="1">
          <mxGeometry x="685" y="450" width="120" height="60" as="geometry" />
        </mxCell>
        <mxCell id="7r4NAoFOjNJ4OGU_1Jsc-8" value="" style="edgeStyle=orthogonalEdgeStyle;rounded=0;orthogonalLoop=1;jettySize=auto;html=1;" edge="1" parent="1" source="7r4NAoFOjNJ4OGU_1Jsc-11" target="7r4NAoFOjNJ4OGU_1Jsc-21">
          <mxGeometry relative="1" as="geometry" />
        </mxCell>
        <mxCell id="7r4NAoFOjNJ4OGU_1Jsc-9" value="" style="edgeStyle=orthogonalEdgeStyle;rounded=0;orthogonalLoop=1;jettySize=auto;html=1;" edge="1" parent="1" source="7r4NAoFOjNJ4OGU_1Jsc-11" target="7r4NAoFOjNJ4OGU_1Jsc-23">
          <mxGeometry relative="1" as="geometry" />
        </mxCell>
        <mxCell id="7r4NAoFOjNJ4OGU_1Jsc-10" value="" style="edgeStyle=orthogonalEdgeStyle;rounded=0;orthogonalLoop=1;jettySize=auto;html=1;" edge="1" parent="1" source="7r4NAoFOjNJ4OGU_1Jsc-11" target="7r4NAoFOjNJ4OGU_1Jsc-25">
          <mxGeometry relative="1" as="geometry" />
        </mxCell>
        <mxCell id="7r4NAoFOjNJ4OGU_1Jsc-11" value="右移" style="whiteSpace=wrap;html=1;rounded=0;" vertex="1" parent="1">
          <mxGeometry x="1765" y="450" width="120" height="60" as="geometry" />
        </mxCell>
        <mxCell id="7r4NAoFOjNJ4OGU_1Jsc-12" value="" style="edgeStyle=orthogonalEdgeStyle;rounded=0;orthogonalLoop=1;jettySize=auto;html=1;" edge="1" parent="1" source="7r4NAoFOjNJ4OGU_1Jsc-13" target="7r4NAoFOjNJ4OGU_1Jsc-27">
          <mxGeometry relative="1" as="geometry" />
        </mxCell>
        <mxCell id="7r4NAoFOjNJ4OGU_1Jsc-13" value="最左" style="whiteSpace=wrap;html=1;rounded=0;" vertex="1" parent="1">
          <mxGeometry x="335" y="590" width="120" height="60" as="geometry" />
        </mxCell>
        <mxCell id="7r4NAoFOjNJ4OGU_1Jsc-14" value="" style="edgeStyle=orthogonalEdgeStyle;rounded=0;orthogonalLoop=1;jettySize=auto;html=1;" edge="1" parent="1" source="7r4NAoFOjNJ4OGU_1Jsc-16" target="7r4NAoFOjNJ4OGU_1Jsc-29">
          <mxGeometry relative="1" as="geometry" />
        </mxCell>
        <mxCell id="7r4NAoFOjNJ4OGU_1Jsc-15" value="" style="edgeStyle=orthogonalEdgeStyle;rounded=0;orthogonalLoop=1;jettySize=auto;html=1;" edge="1" parent="1" source="7r4NAoFOjNJ4OGU_1Jsc-16" target="7r4NAoFOjNJ4OGU_1Jsc-31">
          <mxGeometry relative="1" as="geometry">
            <Array as="points">
              <mxPoint x="865" y="620" />
            </Array>
          </mxGeometry>
        </mxCell>
        <mxCell id="7r4NAoFOjNJ4OGU_1Jsc-16" value="中间" style="whiteSpace=wrap;html=1;rounded=0;" vertex="1" parent="1">
          <mxGeometry x="685" y="590" width="120" height="60" as="geometry" />
        </mxCell>
        <mxCell id="7r4NAoFOjNJ4OGU_1Jsc-17" value="" style="edgeStyle=orthogonalEdgeStyle;rounded=0;orthogonalLoop=1;jettySize=auto;html=1;" edge="1" parent="1" source="7r4NAoFOjNJ4OGU_1Jsc-18" target="7r4NAoFOjNJ4OGU_1Jsc-33">
          <mxGeometry relative="1" as="geometry" />
        </mxCell>
        <mxCell id="7r4NAoFOjNJ4OGU_1Jsc-18" value="最右" style="whiteSpace=wrap;html=1;rounded=0;" vertex="1" parent="1">
          <mxGeometry x="1005" y="590" width="120" height="60" as="geometry" />
        </mxCell>
        <mxCell id="7r4NAoFOjNJ4OGU_1Jsc-19" value="" style="edgeStyle=orthogonalEdgeStyle;rounded=0;orthogonalLoop=1;jettySize=auto;html=1;" edge="1" parent="1" source="7r4NAoFOjNJ4OGU_1Jsc-21" target="7r4NAoFOjNJ4OGU_1Jsc-37">
          <mxGeometry relative="1" as="geometry" />
        </mxCell>
        <mxCell id="7r4NAoFOjNJ4OGU_1Jsc-20" value="" style="edgeStyle=orthogonalEdgeStyle;rounded=0;orthogonalLoop=1;jettySize=auto;html=1;" edge="1" parent="1" source="7r4NAoFOjNJ4OGU_1Jsc-21" target="7r4NAoFOjNJ4OGU_1Jsc-39">
          <mxGeometry relative="1" as="geometry" />
        </mxCell>
        <mxCell id="7r4NAoFOjNJ4OGU_1Jsc-21" value="中间" style="whiteSpace=wrap;html=1;rounded=0;" vertex="1" parent="1">
          <mxGeometry x="1765" y="580" width="120" height="60" as="geometry" />
        </mxCell>
        <mxCell id="7r4NAoFOjNJ4OGU_1Jsc-22" value="" style="edgeStyle=orthogonalEdgeStyle;rounded=0;orthogonalLoop=1;jettySize=auto;html=1;" edge="1" parent="1" source="7r4NAoFOjNJ4OGU_1Jsc-23" target="7r4NAoFOjNJ4OGU_1Jsc-35">
          <mxGeometry relative="1" as="geometry" />
        </mxCell>
        <mxCell id="7r4NAoFOjNJ4OGU_1Jsc-23" value="最左" style="whiteSpace=wrap;html=1;rounded=0;" vertex="1" parent="1">
          <mxGeometry x="1395" y="590" width="120" height="60" as="geometry" />
        </mxCell>
        <mxCell id="7r4NAoFOjNJ4OGU_1Jsc-24" value="" style="edgeStyle=orthogonalEdgeStyle;rounded=0;orthogonalLoop=1;jettySize=auto;html=1;" edge="1" parent="1" source="7r4NAoFOjNJ4OGU_1Jsc-25" target="7r4NAoFOjNJ4OGU_1Jsc-41">
          <mxGeometry relative="1" as="geometry" />
        </mxCell>
        <mxCell id="7r4NAoFOjNJ4OGU_1Jsc-25" value="最右" style="whiteSpace=wrap;html=1;rounded=0;" vertex="1" parent="1">
          <mxGeometry x="2085" y="570" width="120" height="60" as="geometry" />
        </mxCell>
        <mxCell id="7r4NAoFOjNJ4OGU_1Jsc-26" value="" style="edgeStyle=orthogonalEdgeStyle;rounded=0;orthogonalLoop=1;jettySize=auto;html=1;" edge="1" parent="1" source="7r4NAoFOjNJ4OGU_1Jsc-27" target="7r4NAoFOjNJ4OGU_1Jsc-42">
          <mxGeometry relative="1" as="geometry" />
        </mxCell>
        <mxCell id="7r4NAoFOjNJ4OGU_1Jsc-27" value="右拼接线" style="whiteSpace=wrap;html=1;rounded=0;" vertex="1" parent="1">
          <mxGeometry x="335" y="729" width="120" height="60" as="geometry" />
        </mxCell>
        <mxCell id="7r4NAoFOjNJ4OGU_1Jsc-28" value="" style="edgeStyle=orthogonalEdgeStyle;rounded=0;orthogonalLoop=1;jettySize=auto;html=1;" edge="1" parent="1" source="7r4NAoFOjNJ4OGU_1Jsc-29" target="7r4NAoFOjNJ4OGU_1Jsc-43">
          <mxGeometry relative="1" as="geometry" />
        </mxCell>
        <mxCell id="7r4NAoFOjNJ4OGU_1Jsc-29" value="左拼接线" style="whiteSpace=wrap;html=1;rounded=0;" vertex="1" parent="1">
          <mxGeometry x="555" y="730" width="120" height="60" as="geometry" />
        </mxCell>
        <mxCell id="7r4NAoFOjNJ4OGU_1Jsc-30" value="" style="edgeStyle=orthogonalEdgeStyle;rounded=0;orthogonalLoop=1;jettySize=auto;html=1;" edge="1" parent="1" source="7r4NAoFOjNJ4OGU_1Jsc-31" target="7r4NAoFOjNJ4OGU_1Jsc-44">
          <mxGeometry relative="1" as="geometry" />
        </mxCell>
        <mxCell id="7r4NAoFOjNJ4OGU_1Jsc-31" value="右拼接线" style="whiteSpace=wrap;html=1;rounded=0;" vertex="1" parent="1">
          <mxGeometry x="805" y="730" width="120" height="60" as="geometry" />
        </mxCell>
        <mxCell id="7r4NAoFOjNJ4OGU_1Jsc-32" value="" style="edgeStyle=orthogonalEdgeStyle;rounded=0;orthogonalLoop=1;jettySize=auto;html=1;" edge="1" parent="1" source="7r4NAoFOjNJ4OGU_1Jsc-33" target="7r4NAoFOjNJ4OGU_1Jsc-45">
          <mxGeometry relative="1" as="geometry" />
        </mxCell>
        <mxCell id="7r4NAoFOjNJ4OGU_1Jsc-33" value="左拼接线" style="whiteSpace=wrap;html=1;rounded=0;" vertex="1" parent="1">
          <mxGeometry x="1005" y="730" width="120" height="60" as="geometry" />
        </mxCell>
        <mxCell id="7r4NAoFOjNJ4OGU_1Jsc-34" value="" style="edgeStyle=orthogonalEdgeStyle;rounded=0;orthogonalLoop=1;jettySize=auto;html=1;" edge="1" parent="1" source="7r4NAoFOjNJ4OGU_1Jsc-35" target="7r4NAoFOjNJ4OGU_1Jsc-46">
          <mxGeometry relative="1" as="geometry" />
        </mxCell>
        <mxCell id="7r4NAoFOjNJ4OGU_1Jsc-35" value="右拼接线" style="whiteSpace=wrap;html=1;rounded=0;" vertex="1" parent="1">
          <mxGeometry x="1395" y="730" width="120" height="60" as="geometry" />
        </mxCell>
        <mxCell id="7r4NAoFOjNJ4OGU_1Jsc-36" value="" style="edgeStyle=orthogonalEdgeStyle;rounded=0;orthogonalLoop=1;jettySize=auto;html=1;" edge="1" parent="1" source="7r4NAoFOjNJ4OGU_1Jsc-37" target="7r4NAoFOjNJ4OGU_1Jsc-47">
          <mxGeometry relative="1" as="geometry" />
        </mxCell>
        <mxCell id="7r4NAoFOjNJ4OGU_1Jsc-37" value="左拼接线" style="whiteSpace=wrap;html=1;rounded=0;" vertex="1" parent="1">
          <mxGeometry x="1615" y="730" width="120" height="60" as="geometry" />
        </mxCell>
        <mxCell id="7r4NAoFOjNJ4OGU_1Jsc-38" value="" style="edgeStyle=orthogonalEdgeStyle;rounded=0;orthogonalLoop=1;jettySize=auto;html=1;" edge="1" parent="1" source="7r4NAoFOjNJ4OGU_1Jsc-39" target="7r4NAoFOjNJ4OGU_1Jsc-48">
          <mxGeometry relative="1" as="geometry" />
        </mxCell>
        <mxCell id="7r4NAoFOjNJ4OGU_1Jsc-39" value="右拼接线" style="whiteSpace=wrap;html=1;rounded=0;" vertex="1" parent="1">
          <mxGeometry x="1905" y="730" width="120" height="60" as="geometry" />
        </mxCell>
        <mxCell id="7r4NAoFOjNJ4OGU_1Jsc-40" value="" style="edgeStyle=orthogonalEdgeStyle;rounded=0;orthogonalLoop=1;jettySize=auto;html=1;" edge="1" parent="1" source="7r4NAoFOjNJ4OGU_1Jsc-41" target="7r4NAoFOjNJ4OGU_1Jsc-49">
          <mxGeometry relative="1" as="geometry" />
        </mxCell>
        <mxCell id="7r4NAoFOjNJ4OGU_1Jsc-41" value="左拼接线" style="whiteSpace=wrap;html=1;rounded=0;" vertex="1" parent="1">
          <mxGeometry x="2085" y="730" width="120" height="60" as="geometry" />
        </mxCell>
        <mxCell id="7r4NAoFOjNJ4OGU_1Jsc-42" value="元素右边高于右拼接线&lt;div&gt;不整体移动&lt;/div&gt;" style="whiteSpace=wrap;html=1;rounded=0;" vertex="1" parent="1">
          <mxGeometry x="330" y="870" width="130" height="60" as="geometry" />
        </mxCell>
        <mxCell id="7r4NAoFOjNJ4OGU_1Jsc-43" value="元素右边高于左拼接线&lt;div&gt;整体左移右方&lt;/div&gt;" style="whiteSpace=wrap;html=1;rounded=0;" vertex="1" parent="1">
          <mxGeometry x="550" y="870" width="130" height="60" as="geometry" />
        </mxCell>
        <mxCell id="7r4NAoFOjNJ4OGU_1Jsc-44" value="元素右边高于左拼接线&lt;div&gt;整体左移左方&lt;/div&gt;" style="whiteSpace=wrap;html=1;rounded=0;" vertex="1" parent="1">
          <mxGeometry x="795" y="870" width="140" height="60" as="geometry" />
        </mxCell>
        <mxCell id="7r4NAoFOjNJ4OGU_1Jsc-45" value="元素右边高于左拼接线&lt;div&gt;不整体移动&lt;/div&gt;" style="whiteSpace=wrap;html=1;rounded=0;" vertex="1" parent="1">
          <mxGeometry x="1000" y="870" width="130" height="60" as="geometry" />
        </mxCell>
        <mxCell id="7r4NAoFOjNJ4OGU_1Jsc-46" value="元素左边低于右拼接线&lt;div&gt;不整体移动&lt;/div&gt;" style="whiteSpace=wrap;html=1;rounded=0;" vertex="1" parent="1">
          <mxGeometry x="1385" y="870" width="140" height="60" as="geometry" />
        </mxCell>
        <mxCell id="7r4NAoFOjNJ4OGU_1Jsc-47" value="元素左边低于左拼接线&lt;div&gt;整体右移右方&lt;/div&gt;" style="whiteSpace=wrap;html=1;rounded=0;" vertex="1" parent="1">
          <mxGeometry x="1610" y="870" width="130" height="60" as="geometry" />
        </mxCell>
        <mxCell id="7r4NAoFOjNJ4OGU_1Jsc-48" value="元素左边低于右拼接线&lt;div&gt;整体右移左方&lt;/div&gt;" style="whiteSpace=wrap;html=1;rounded=0;" vertex="1" parent="1">
          <mxGeometry x="1900" y="870" width="130" height="60" as="geometry" />
        </mxCell>
        <mxCell id="7r4NAoFOjNJ4OGU_1Jsc-49" value="元素左边低于左拼接线&lt;div&gt;不整体移动&lt;/div&gt;" style="whiteSpace=wrap;html=1;rounded=0;" vertex="1" parent="1">
          <mxGeometry x="2081" y="870" width="130" height="60" as="geometry" />
        </mxCell>
        <mxCell id="7r4NAoFOjNJ4OGU_1Jsc-52" value="左为低&lt;div&gt;右为高&lt;/div&gt;" style="text;html=1;align=center;verticalAlign=middle;resizable=0;points=[];autosize=1;strokeColor=none;fillColor=none;" vertex="1" parent="1">
          <mxGeometry x="767" y="180" width="60" height="40" as="geometry" />
        </mxCell>
        <mxCell id="_FZ0MaBvtJ54A3tryOLX-1" value="&lt;div style=&quot;color: #cccccc;background-color: #1f1f1f;font-family: JetBrains Mono,Consolas, &#39;Courier New&#39;, monospace, Consolas, &#39;Courier New&#39;, monospace;font-weight: normal;font-size: 14px;line-height: 19px;white-space: pre;&quot;&gt;&lt;div style=&quot;line-height: 19px;&quot;&gt;&lt;span style=&quot;color: #9cdcfe;&quot;&gt;currentRightX&lt;/span&gt; &lt;span style=&quot;color: #d4d4d4;&quot;&gt;+&lt;/span&gt; &lt;span style=&quot;color: #9cdcfe;&quot;&gt;deltaX&lt;/span&gt; &lt;span style=&quot;color: #d4d4d4;&quot;&gt;&amp;gt;=&lt;/span&gt; &lt;span style=&quot;color: #9cdcfe;&quot;&gt;rightSplicingLine&lt;/span&gt;-&amp;gt;&lt;span style=&quot;color: #dcdcaa;&quot;&gt;line&lt;/span&gt;().&lt;span style=&quot;color: #dcdcaa;&quot;&gt;x1&lt;/span&gt;()&lt;/div&gt;&lt;/div&gt;" style="text;whiteSpace=wrap;html=1;" vertex="1" parent="1">
          <mxGeometry x="30" y="940" width="500" height="40" as="geometry" />
        </mxCell>
        <mxCell id="_FZ0MaBvtJ54A3tryOLX-2" value="&lt;div style=&quot;color: #cccccc;background-color: #1f1f1f;font-family: JetBrains Mono,Consolas, &#39;Courier New&#39;, monospace, Consolas, &#39;Courier New&#39;, monospace;font-weight: normal;font-size: 14px;line-height: 19px;white-space: pre;&quot;&gt;&lt;div&gt;&lt;span style=&quot;color: #9cdcfe;&quot;&gt;currentRightX&lt;/span&gt;&lt;span style=&quot;color: #cccccc;&quot;&gt; &lt;/span&gt;&lt;span style=&quot;color: #d4d4d4;&quot;&gt;+&lt;/span&gt;&lt;span style=&quot;color: #cccccc;&quot;&gt; &lt;/span&gt;&lt;span style=&quot;color: #9cdcfe;&quot;&gt;deltaX&lt;/span&gt;&lt;span style=&quot;color: #cccccc;&quot;&gt; &lt;/span&gt;&lt;span style=&quot;color: #d4d4d4;&quot;&gt;&amp;gt;=&lt;/span&gt;&lt;span style=&quot;color: #cccccc;&quot;&gt; &lt;/span&gt;&lt;span style=&quot;color: #9cdcfe;&quot;&gt;leftSplicingLine&lt;/span&gt;&lt;span style=&quot;color: #cccccc;&quot;&gt;-&amp;gt;&lt;/span&gt;&lt;span style=&quot;color: #dcdcaa;&quot;&gt;line&lt;/span&gt;&lt;span style=&quot;color: #cccccc;&quot;&gt;().&lt;/span&gt;&lt;span style=&quot;color: #dcdcaa;&quot;&gt;x1&lt;/span&gt;&lt;span style=&quot;color: #cccccc;&quot;&gt;()&lt;/span&gt;&lt;/div&gt;&lt;div&gt;&lt;span style=&quot;color: #cccccc;&quot;&gt;&lt;div style=&quot;line-height: 19px;&quot;&gt;&lt;span style=&quot;color: rgb(220, 220, 170);&quot;&gt;moveElementsRight&lt;/span&gt;(&lt;span style=&quot;color: #9cdcfe;&quot;&gt;currentRightX&lt;/span&gt;, &lt;span style=&quot;color: #9cdcfe;&quot;&gt;deltaX&lt;/span&gt;);&lt;/div&gt;&lt;/span&gt;&lt;/div&gt;&lt;/div&gt;" style="text;whiteSpace=wrap;html=1;" vertex="1" parent="1">
          <mxGeometry x="390" y="980" width="500" height="40" as="geometry" />
        </mxCell>
        <mxCell id="_FZ0MaBvtJ54A3tryOLX-3" value="&lt;div style=&quot;color: #cccccc;background-color: #1f1f1f;font-family: JetBrains Mono,Consolas, &#39;Courier New&#39;, monospace, Consolas, &#39;Courier New&#39;, monospace;font-weight: normal;font-size: 14px;line-height: 19px;white-space: pre;&quot;&gt;&lt;div&gt;&lt;span style=&quot;color: #9cdcfe;&quot;&gt;currentRightX&lt;/span&gt;&lt;span style=&quot;color: #cccccc;&quot;&gt; &lt;/span&gt;&lt;span style=&quot;color: #d4d4d4;&quot;&gt;+&lt;/span&gt;&lt;span style=&quot;color: #cccccc;&quot;&gt; &lt;/span&gt;&lt;span style=&quot;color: #9cdcfe;&quot;&gt;deltaX&lt;/span&gt;&lt;span style=&quot;color: #cccccc;&quot;&gt; &lt;/span&gt;&lt;span style=&quot;color: #d4d4d4;&quot;&gt;&amp;gt;=&lt;/span&gt;&lt;span style=&quot;color: #cccccc;&quot;&gt; &lt;/span&gt;&lt;span style=&quot;color: #9cdcfe;&quot;&gt;leftSplicingLine&lt;/span&gt;&lt;span style=&quot;color: #cccccc;&quot;&gt;-&amp;gt;&lt;/span&gt;&lt;span style=&quot;color: #dcdcaa;&quot;&gt;line&lt;/span&gt;&lt;span style=&quot;color: #cccccc;&quot;&gt;().&lt;/span&gt;&lt;span style=&quot;color: #dcdcaa;&quot;&gt;x1&lt;/span&gt;&lt;span style=&quot;color: #cccccc;&quot;&gt;()&lt;/span&gt;&lt;/div&gt;&lt;div&gt;&lt;span style=&quot;color: #cccccc;&quot;&gt;&lt;div style=&quot;line-height: 19px;&quot;&gt;&lt;span style=&quot;color: rgb(220, 220, 170);&quot;&gt;moveElementsLeft&lt;/span&gt;(&lt;span style=&quot;color: rgb(156, 220, 254);&quot;&gt;currentLeftX&lt;/span&gt;, &lt;span style=&quot;color: rgb(156, 220, 254);&quot;&gt;deltaX&lt;/span&gt;);&lt;br&gt;&lt;/div&gt;&lt;/span&gt;&lt;/div&gt;&lt;/div&gt;" style="text;whiteSpace=wrap;html=1;" vertex="1" parent="1">
          <mxGeometry x="660" y="1050" width="500" height="40" as="geometry" />
        </mxCell>
        <mxCell id="_FZ0MaBvtJ54A3tryOLX-4" value="&lt;div style=&quot;color: #cccccc;background-color: #1f1f1f;font-family: JetBrains Mono,Consolas, &#39;Courier New&#39;, monospace, Consolas, &#39;Courier New&#39;, monospace;font-weight: normal;font-size: 14px;line-height: 19px;white-space: pre;&quot;&gt;&lt;div style=&quot;line-height: 19px;&quot;&gt;&lt;span style=&quot;color: #9cdcfe;&quot;&gt;currentRightX&lt;/span&gt; &lt;span style=&quot;color: #d4d4d4;&quot;&gt;+&lt;/span&gt; &lt;span style=&quot;color: #9cdcfe;&quot;&gt;deltaX&lt;/span&gt; &lt;span style=&quot;color: #d4d4d4;&quot;&gt;&amp;gt;=&lt;/span&gt; &lt;span style=&quot;color: rgb(156, 220, 254);&quot;&gt;leftSplicingLine&lt;/span&gt;-&amp;gt;&lt;span style=&quot;color: rgb(220, 220, 170);&quot;&gt;line&lt;/span&gt;().&lt;span style=&quot;color: rgb(220, 220, 170);&quot;&gt;x1&lt;/span&gt;()&lt;br&gt;&lt;/div&gt;&lt;/div&gt;" style="text;whiteSpace=wrap;html=1;" vertex="1" parent="1">
          <mxGeometry x="815" y="1120" width="500" height="40" as="geometry" />
        </mxCell>
        <mxCell id="_FZ0MaBvtJ54A3tryOLX-5" value="&lt;div style=&quot;color: #cccccc;background-color: #1f1f1f;font-family: JetBrains Mono,Consolas, &#39;Courier New&#39;, monospace, Consolas, &#39;Courier New&#39;, monospace;font-weight: normal;font-size: 14px;line-height: 19px;white-space: pre;&quot;&gt;&lt;div style=&quot;line-height: 19px;&quot;&gt;&lt;span style=&quot;color: #d4d4d4;&quot;&gt;&lt;span style=&quot;color: rgb(156, 220, 254);&quot;&gt;currentLeftX&lt;/span&gt;&lt;span style=&quot;color: rgb(204, 204, 204);&quot;&gt; &lt;/span&gt;+&lt;/span&gt; &lt;span style=&quot;color: #9cdcfe;&quot;&gt;deltaX&lt;/span&gt; &amp;lt;&lt;span style=&quot;color: #d4d4d4;&quot;&gt;=&lt;/span&gt; &lt;span style=&quot;color: rgb(156, 220, 254);&quot;&gt;rightSplicingLine&lt;/span&gt;-&amp;gt;&lt;span style=&quot;color: rgb(220, 220, 170);&quot;&gt;line&lt;/span&gt;().&lt;span style=&quot;color: rgb(220, 220, 170);&quot;&gt;x1&lt;/span&gt;()&lt;br&gt;&lt;/div&gt;&lt;/div&gt;" style="text;whiteSpace=wrap;html=1;" vertex="1" parent="1">
          <mxGeometry x="1220" y="940" width="500" height="40" as="geometry" />
        </mxCell>
        <mxCell id="_FZ0MaBvtJ54A3tryOLX-6" value="&lt;div style=&quot;color: #cccccc;background-color: #1f1f1f;font-family: JetBrains Mono,Consolas, &#39;Courier New&#39;, monospace, Consolas, &#39;Courier New&#39;, monospace;font-weight: normal;font-size: 14px;line-height: 19px;white-space: pre;&quot;&gt;&lt;div&gt;&lt;span style=&quot;color: rgb(220, 220, 170);&quot;&gt;&lt;span style=&quot;color: rgb(156, 220, 254);&quot;&gt;currentLeftX&lt;/span&gt;&lt;span style=&quot;color: rgb(204, 204, 204);&quot;&gt; &lt;/span&gt;&lt;span style=&quot;color: rgb(212, 212, 212);&quot;&gt;+&lt;/span&gt;&lt;span style=&quot;color: rgb(204, 204, 204);&quot;&gt; &lt;/span&gt;&lt;span style=&quot;color: rgb(156, 220, 254);&quot;&gt;deltaX&lt;/span&gt;&lt;span style=&quot;color: rgb(204, 204, 204);&quot;&gt; &lt;/span&gt;&lt;span style=&quot;color: rgb(212, 212, 212);&quot;&gt;&amp;lt;=&lt;/span&gt;&lt;span style=&quot;color: rgb(204, 204, 204);&quot;&gt; &lt;/span&gt;&lt;span style=&quot;color: rgb(156, 220, 254);&quot;&gt;leftSplicingLine&lt;/span&gt;&lt;span style=&quot;color: rgb(204, 204, 204);&quot;&gt;-&amp;gt;&lt;/span&gt;line&lt;span style=&quot;color: rgb(204, 204, 204);&quot;&gt;().&lt;/span&gt;x1&lt;span style=&quot;color: rgb(204, 204, 204);&quot;&gt;()&lt;/span&gt;&lt;/span&gt;&lt;/div&gt;&lt;div&gt;&lt;div style=&quot;line-height: 19px;&quot;&gt;&lt;span style=&quot;color: #dcdcaa;&quot;&gt;moveElementsRight&lt;/span&gt;(&lt;span style=&quot;color: #9cdcfe;&quot;&gt;currentRightX&lt;/span&gt;, &lt;span style=&quot;color: #9cdcfe;&quot;&gt;deltaX&lt;/span&gt;);&lt;/div&gt;&lt;/div&gt;&lt;/div&gt;" style="text;whiteSpace=wrap;html=1;" vertex="1" parent="1">
          <mxGeometry x="1450" y="990" width="500" height="40" as="geometry" />
        </mxCell>
        <mxCell id="_FZ0MaBvtJ54A3tryOLX-7" value="&lt;div style=&quot;color: #cccccc;background-color: #1f1f1f;font-family: JetBrains Mono,Consolas, &#39;Courier New&#39;, monospace, Consolas, &#39;Courier New&#39;, monospace;font-weight: normal;font-size: 14px;line-height: 19px;white-space: pre;&quot;&gt;&lt;div&gt;&lt;span style=&quot;color: rgb(220, 220, 170);&quot;&gt;&lt;span style=&quot;color: rgb(156, 220, 254);&quot;&gt;currentLeftX&lt;/span&gt;&lt;span style=&quot;color: rgb(204, 204, 204);&quot;&gt; &lt;/span&gt;&lt;span style=&quot;color: rgb(212, 212, 212);&quot;&gt;+&lt;/span&gt;&lt;span style=&quot;color: rgb(204, 204, 204);&quot;&gt; &lt;/span&gt;&lt;span style=&quot;color: rgb(156, 220, 254);&quot;&gt;deltaX&lt;/span&gt;&lt;span style=&quot;color: rgb(204, 204, 204);&quot;&gt; &lt;/span&gt;&lt;span style=&quot;color: rgb(212, 212, 212);&quot;&gt;&amp;lt;=&lt;/span&gt;&lt;span style=&quot;color: rgb(204, 204, 204);&quot;&gt; &lt;/span&gt;&lt;span style=&quot;color: rgb(156, 220, 254);&quot;&gt;leftSplicingLine&lt;/span&gt;&lt;span style=&quot;color: rgb(204, 204, 204);&quot;&gt;-&amp;gt;&lt;/span&gt;line&lt;span style=&quot;color: rgb(204, 204, 204);&quot;&gt;().&lt;/span&gt;x1&lt;span style=&quot;color: rgb(204, 204, 204);&quot;&gt;()&lt;/span&gt;&lt;/span&gt;&lt;/div&gt;&lt;div&gt;&lt;div style=&quot;line-height: 19px;&quot;&gt;&lt;span style=&quot;color: rgb(220, 220, 170);&quot;&gt;moveElementsLeft&lt;/span&gt;(&lt;span style=&quot;color: rgb(156, 220, 254);&quot;&gt;currentLeftX&lt;/span&gt;, &lt;span style=&quot;color: rgb(156, 220, 254);&quot;&gt;deltaX&lt;/span&gt;);&lt;br&gt;&lt;/div&gt;&lt;/div&gt;&lt;/div&gt;" style="text;whiteSpace=wrap;html=1;" vertex="1" parent="1">
          <mxGeometry x="1720" y="1050" width="500" height="40" as="geometry" />
        </mxCell>
        <mxCell id="_FZ0MaBvtJ54A3tryOLX-8" value="&lt;div style=&quot;background-color: rgb(31, 31, 31); font-family: &amp;quot;JetBrains Mono&amp;quot;, Consolas, &amp;quot;Courier New&amp;quot;, monospace, Consolas, &amp;quot;Courier New&amp;quot;, monospace; font-weight: normal; font-size: 14px; line-height: 19px; white-space: pre; color: rgb(204, 204, 204);&quot;&gt;&lt;div style=&quot;line-height: 19px;&quot;&gt;&lt;div style=&quot;&quot;&gt;&lt;span style=&quot;color: rgb(220, 220, 170);&quot;&gt;&lt;span style=&quot;color: rgb(156, 220, 254);&quot;&gt;currentLeftX&lt;/span&gt;&lt;span style=&quot;color: rgb(204, 204, 204);&quot;&gt; &lt;/span&gt;&lt;span style=&quot;color: rgb(212, 212, 212);&quot;&gt;+&lt;/span&gt;&lt;span style=&quot;color: rgb(204, 204, 204);&quot;&gt; &lt;/span&gt;&lt;span style=&quot;color: rgb(156, 220, 254);&quot;&gt;deltaX&lt;/span&gt;&lt;span style=&quot;color: rgb(204, 204, 204);&quot;&gt; &amp;lt;&lt;/span&gt;&lt;span style=&quot;color: rgb(204, 204, 204);&quot;&gt;&lt;font color=&quot;#d4d4d4&quot;&gt;=&lt;/font&gt;&lt;/span&gt;&lt;span style=&quot;color: rgb(204, 204, 204);&quot;&gt; &lt;/span&gt;&lt;span style=&quot;color: rgb(156, 220, 254);&quot;&gt;leftSplicingLine&lt;/span&gt;&lt;span style=&quot;color: rgb(204, 204, 204);&quot;&gt;-&amp;gt;&lt;/span&gt;&lt;font color=&quot;#dcdcaa&quot;&gt;line&lt;/font&gt;&lt;span style=&quot;color: rgb(204, 204, 204);&quot;&gt;().&lt;/span&gt;&lt;font color=&quot;#dcdcaa&quot;&gt;x1&lt;/font&gt;&lt;span style=&quot;color: rgb(204, 204, 204);&quot;&gt;()&lt;/span&gt;&lt;/span&gt;&lt;/div&gt;&lt;div style=&quot;color: rgb(204, 204, 204);&quot;&gt;&lt;/div&gt;&lt;/div&gt;&lt;/div&gt;" style="text;whiteSpace=wrap;html=1;" vertex="1" parent="1">
          <mxGeometry x="1896" y="1120" width="500" height="40" as="geometry" />
        </mxCell>
      </root>
    </mxGraphModel>
  </diagram>
  <diagram id="3e1ADIfjI8nIXuiK0qOT" name="所有移动">
    <mxGraphModel dx="3397" dy="1931" grid="1" gridSize="10" guides="1" tooltips="1" connect="1" arrows="1" fold="1" page="1" pageScale="1" pageWidth="827" pageHeight="1169" math="0" shadow="0">
      <root>
        <mxCell id="0" />
        <mxCell id="1" parent="0" />
        <mxCell id="TPMHrRKmsCWebkbTURFH-1" value="" style="edgeStyle=orthogonalEdgeStyle;rounded=0;orthogonalLoop=1;jettySize=auto;html=1;" edge="1" parent="1" source="TPMHrRKmsCWebkbTURFH-3" target="TPMHrRKmsCWebkbTURFH-7">
          <mxGeometry relative="1" as="geometry" />
        </mxCell>
        <mxCell id="TPMHrRKmsCWebkbTURFH-2" value="" style="edgeStyle=orthogonalEdgeStyle;rounded=0;orthogonalLoop=1;jettySize=auto;html=1;" edge="1" parent="1" source="TPMHrRKmsCWebkbTURFH-3" target="TPMHrRKmsCWebkbTURFH-11">
          <mxGeometry relative="1" as="geometry" />
        </mxCell>
        <mxCell id="TPMHrRKmsCWebkbTURFH-3" value="垂直拼接" style="rounded=0;whiteSpace=wrap;html=1;" vertex="1" parent="1">
          <mxGeometry x="1300" y="430" width="120" height="60" as="geometry" />
        </mxCell>
        <mxCell id="TPMHrRKmsCWebkbTURFH-4" style="edgeStyle=orthogonalEdgeStyle;rounded=0;orthogonalLoop=1;jettySize=auto;html=1;entryX=0.5;entryY=0;entryDx=0;entryDy=0;" edge="1" parent="1" source="TPMHrRKmsCWebkbTURFH-7" target="TPMHrRKmsCWebkbTURFH-13">
          <mxGeometry relative="1" as="geometry" />
        </mxCell>
        <mxCell id="TPMHrRKmsCWebkbTURFH-5" value="" style="edgeStyle=orthogonalEdgeStyle;rounded=0;orthogonalLoop=1;jettySize=auto;html=1;" edge="1" parent="1" source="TPMHrRKmsCWebkbTURFH-7" target="TPMHrRKmsCWebkbTURFH-16">
          <mxGeometry relative="1" as="geometry" />
        </mxCell>
        <mxCell id="TPMHrRKmsCWebkbTURFH-6" value="" style="edgeStyle=orthogonalEdgeStyle;rounded=0;orthogonalLoop=1;jettySize=auto;html=1;" edge="1" parent="1" source="TPMHrRKmsCWebkbTURFH-7" target="TPMHrRKmsCWebkbTURFH-18">
          <mxGeometry relative="1" as="geometry" />
        </mxCell>
        <mxCell id="TPMHrRKmsCWebkbTURFH-7" value="上移" style="whiteSpace=wrap;html=1;rounded=0;" vertex="1" parent="1">
          <mxGeometry x="785" y="550" width="120" height="60" as="geometry" />
        </mxCell>
        <mxCell id="TPMHrRKmsCWebkbTURFH-8" value="" style="edgeStyle=orthogonalEdgeStyle;rounded=0;orthogonalLoop=1;jettySize=auto;html=1;" edge="1" parent="1" source="TPMHrRKmsCWebkbTURFH-11" target="TPMHrRKmsCWebkbTURFH-21">
          <mxGeometry relative="1" as="geometry" />
        </mxCell>
        <mxCell id="TPMHrRKmsCWebkbTURFH-9" value="" style="edgeStyle=orthogonalEdgeStyle;rounded=0;orthogonalLoop=1;jettySize=auto;html=1;" edge="1" parent="1" source="TPMHrRKmsCWebkbTURFH-11" target="TPMHrRKmsCWebkbTURFH-23">
          <mxGeometry relative="1" as="geometry" />
        </mxCell>
        <mxCell id="TPMHrRKmsCWebkbTURFH-10" value="" style="edgeStyle=orthogonalEdgeStyle;rounded=0;orthogonalLoop=1;jettySize=auto;html=1;" edge="1" parent="1" source="TPMHrRKmsCWebkbTURFH-11" target="TPMHrRKmsCWebkbTURFH-25">
          <mxGeometry relative="1" as="geometry" />
        </mxCell>
        <mxCell id="TPMHrRKmsCWebkbTURFH-11" value="下移" style="whiteSpace=wrap;html=1;rounded=0;" vertex="1" parent="1">
          <mxGeometry x="1865" y="550" width="120" height="60" as="geometry" />
        </mxCell>
        <mxCell id="TPMHrRKmsCWebkbTURFH-12" value="" style="edgeStyle=orthogonalEdgeStyle;rounded=0;orthogonalLoop=1;jettySize=auto;html=1;" edge="1" parent="1" source="TPMHrRKmsCWebkbTURFH-13" target="TPMHrRKmsCWebkbTURFH-27">
          <mxGeometry relative="1" as="geometry" />
        </mxCell>
        <mxCell id="TPMHrRKmsCWebkbTURFH-13" value="最上" style="whiteSpace=wrap;html=1;rounded=0;" vertex="1" parent="1">
          <mxGeometry x="435" y="690" width="120" height="60" as="geometry" />
        </mxCell>
        <mxCell id="TPMHrRKmsCWebkbTURFH-14" value="" style="edgeStyle=orthogonalEdgeStyle;rounded=0;orthogonalLoop=1;jettySize=auto;html=1;" edge="1" parent="1" source="TPMHrRKmsCWebkbTURFH-16" target="TPMHrRKmsCWebkbTURFH-29">
          <mxGeometry relative="1" as="geometry" />
        </mxCell>
        <mxCell id="TPMHrRKmsCWebkbTURFH-15" value="" style="edgeStyle=orthogonalEdgeStyle;rounded=0;orthogonalLoop=1;jettySize=auto;html=1;" edge="1" parent="1" source="TPMHrRKmsCWebkbTURFH-16" target="TPMHrRKmsCWebkbTURFH-31">
          <mxGeometry relative="1" as="geometry">
            <Array as="points">
              <mxPoint x="965" y="720" />
            </Array>
          </mxGeometry>
        </mxCell>
        <mxCell id="TPMHrRKmsCWebkbTURFH-16" value="中间" style="whiteSpace=wrap;html=1;rounded=0;" vertex="1" parent="1">
          <mxGeometry x="785" y="690" width="120" height="60" as="geometry" />
        </mxCell>
        <mxCell id="TPMHrRKmsCWebkbTURFH-17" value="" style="edgeStyle=orthogonalEdgeStyle;rounded=0;orthogonalLoop=1;jettySize=auto;html=1;" edge="1" parent="1" source="TPMHrRKmsCWebkbTURFH-18" target="TPMHrRKmsCWebkbTURFH-33">
          <mxGeometry relative="1" as="geometry" />
        </mxCell>
        <mxCell id="TPMHrRKmsCWebkbTURFH-18" value="最下" style="whiteSpace=wrap;html=1;rounded=0;" vertex="1" parent="1">
          <mxGeometry x="1105" y="690" width="120" height="60" as="geometry" />
        </mxCell>
        <mxCell id="TPMHrRKmsCWebkbTURFH-19" value="" style="edgeStyle=orthogonalEdgeStyle;rounded=0;orthogonalLoop=1;jettySize=auto;html=1;" edge="1" parent="1" source="TPMHrRKmsCWebkbTURFH-21" target="TPMHrRKmsCWebkbTURFH-37">
          <mxGeometry relative="1" as="geometry" />
        </mxCell>
        <mxCell id="TPMHrRKmsCWebkbTURFH-20" value="" style="edgeStyle=orthogonalEdgeStyle;rounded=0;orthogonalLoop=1;jettySize=auto;html=1;" edge="1" parent="1" source="TPMHrRKmsCWebkbTURFH-21" target="TPMHrRKmsCWebkbTURFH-39">
          <mxGeometry relative="1" as="geometry" />
        </mxCell>
        <mxCell id="TPMHrRKmsCWebkbTURFH-21" value="中间" style="whiteSpace=wrap;html=1;rounded=0;" vertex="1" parent="1">
          <mxGeometry x="1865" y="680" width="120" height="60" as="geometry" />
        </mxCell>
        <mxCell id="TPMHrRKmsCWebkbTURFH-22" value="" style="edgeStyle=orthogonalEdgeStyle;rounded=0;orthogonalLoop=1;jettySize=auto;html=1;" edge="1" parent="1" source="TPMHrRKmsCWebkbTURFH-23" target="TPMHrRKmsCWebkbTURFH-35">
          <mxGeometry relative="1" as="geometry" />
        </mxCell>
        <mxCell id="TPMHrRKmsCWebkbTURFH-23" value="最上" style="whiteSpace=wrap;html=1;rounded=0;" vertex="1" parent="1">
          <mxGeometry x="1495" y="690" width="120" height="60" as="geometry" />
        </mxCell>
        <mxCell id="TPMHrRKmsCWebkbTURFH-24" value="" style="edgeStyle=orthogonalEdgeStyle;rounded=0;orthogonalLoop=1;jettySize=auto;html=1;" edge="1" parent="1" source="TPMHrRKmsCWebkbTURFH-25" target="TPMHrRKmsCWebkbTURFH-41">
          <mxGeometry relative="1" as="geometry" />
        </mxCell>
        <mxCell id="TPMHrRKmsCWebkbTURFH-25" value="最下" style="whiteSpace=wrap;html=1;rounded=0;" vertex="1" parent="1">
          <mxGeometry x="2185" y="670" width="120" height="60" as="geometry" />
        </mxCell>
        <mxCell id="TPMHrRKmsCWebkbTURFH-26" value="" style="edgeStyle=orthogonalEdgeStyle;rounded=0;orthogonalLoop=1;jettySize=auto;html=1;" edge="1" parent="1" source="TPMHrRKmsCWebkbTURFH-27" target="TPMHrRKmsCWebkbTURFH-43">
          <mxGeometry relative="1" as="geometry" />
        </mxCell>
        <mxCell id="TPMHrRKmsCWebkbTURFH-27" value="下拼接线" style="whiteSpace=wrap;html=1;rounded=0;" vertex="1" parent="1">
          <mxGeometry x="435" y="829" width="120" height="60" as="geometry" />
        </mxCell>
        <mxCell id="TPMHrRKmsCWebkbTURFH-28" value="" style="edgeStyle=orthogonalEdgeStyle;rounded=0;orthogonalLoop=1;jettySize=auto;html=1;" edge="1" parent="1" source="TPMHrRKmsCWebkbTURFH-29" target="TPMHrRKmsCWebkbTURFH-45">
          <mxGeometry relative="1" as="geometry" />
        </mxCell>
        <mxCell id="TPMHrRKmsCWebkbTURFH-29" value="上拼接线" style="whiteSpace=wrap;html=1;rounded=0;" vertex="1" parent="1">
          <mxGeometry x="655" y="830" width="120" height="60" as="geometry" />
        </mxCell>
        <mxCell id="TPMHrRKmsCWebkbTURFH-30" value="" style="edgeStyle=orthogonalEdgeStyle;rounded=0;orthogonalLoop=1;jettySize=auto;html=1;" edge="1" parent="1" source="TPMHrRKmsCWebkbTURFH-31" target="TPMHrRKmsCWebkbTURFH-47">
          <mxGeometry relative="1" as="geometry" />
        </mxCell>
        <mxCell id="TPMHrRKmsCWebkbTURFH-31" value="下拼接线" style="whiteSpace=wrap;html=1;rounded=0;" vertex="1" parent="1">
          <mxGeometry x="905" y="830" width="120" height="60" as="geometry" />
        </mxCell>
        <mxCell id="TPMHrRKmsCWebkbTURFH-32" value="" style="edgeStyle=orthogonalEdgeStyle;rounded=0;orthogonalLoop=1;jettySize=auto;html=1;" edge="1" parent="1" source="TPMHrRKmsCWebkbTURFH-33" target="TPMHrRKmsCWebkbTURFH-52">
          <mxGeometry relative="1" as="geometry" />
        </mxCell>
        <mxCell id="TPMHrRKmsCWebkbTURFH-33" value="上拼接线" style="whiteSpace=wrap;html=1;rounded=0;" vertex="1" parent="1">
          <mxGeometry x="1105" y="830" width="120" height="60" as="geometry" />
        </mxCell>
        <mxCell id="TPMHrRKmsCWebkbTURFH-34" value="" style="edgeStyle=orthogonalEdgeStyle;rounded=0;orthogonalLoop=1;jettySize=auto;html=1;" edge="1" parent="1" source="TPMHrRKmsCWebkbTURFH-35" target="TPMHrRKmsCWebkbTURFH-55">
          <mxGeometry relative="1" as="geometry" />
        </mxCell>
        <mxCell id="TPMHrRKmsCWebkbTURFH-35" value="下拼接线" style="whiteSpace=wrap;html=1;rounded=0;" vertex="1" parent="1">
          <mxGeometry x="1495" y="830" width="120" height="60" as="geometry" />
        </mxCell>
        <mxCell id="TPMHrRKmsCWebkbTURFH-36" value="" style="edgeStyle=orthogonalEdgeStyle;rounded=0;orthogonalLoop=1;jettySize=auto;html=1;" edge="1" parent="1" source="TPMHrRKmsCWebkbTURFH-37" target="TPMHrRKmsCWebkbTURFH-57">
          <mxGeometry relative="1" as="geometry" />
        </mxCell>
        <mxCell id="TPMHrRKmsCWebkbTURFH-37" value="上拼接线" style="whiteSpace=wrap;html=1;rounded=0;" vertex="1" parent="1">
          <mxGeometry x="1715" y="830" width="120" height="60" as="geometry" />
        </mxCell>
        <mxCell id="TPMHrRKmsCWebkbTURFH-38" value="" style="edgeStyle=orthogonalEdgeStyle;rounded=0;orthogonalLoop=1;jettySize=auto;html=1;" edge="1" parent="1" source="TPMHrRKmsCWebkbTURFH-39" target="TPMHrRKmsCWebkbTURFH-59">
          <mxGeometry relative="1" as="geometry" />
        </mxCell>
        <mxCell id="TPMHrRKmsCWebkbTURFH-39" value="下拼接线" style="whiteSpace=wrap;html=1;rounded=0;" vertex="1" parent="1">
          <mxGeometry x="2005" y="830" width="120" height="60" as="geometry" />
        </mxCell>
        <mxCell id="TPMHrRKmsCWebkbTURFH-40" value="" style="edgeStyle=orthogonalEdgeStyle;rounded=0;orthogonalLoop=1;jettySize=auto;html=1;" edge="1" parent="1" source="TPMHrRKmsCWebkbTURFH-41" target="TPMHrRKmsCWebkbTURFH-61">
          <mxGeometry relative="1" as="geometry" />
        </mxCell>
        <mxCell id="TPMHrRKmsCWebkbTURFH-41" value="上拼接线" style="whiteSpace=wrap;html=1;rounded=0;" vertex="1" parent="1">
          <mxGeometry x="2185" y="830" width="120" height="60" as="geometry" />
        </mxCell>
        <mxCell id="TPMHrRKmsCWebkbTURFH-42" style="edgeStyle=orthogonalEdgeStyle;rounded=0;orthogonalLoop=1;jettySize=auto;html=1;" edge="1" parent="1" source="TPMHrRKmsCWebkbTURFH-43">
          <mxGeometry relative="1" as="geometry">
            <mxPoint x="495" y="1090" as="targetPoint" />
          </mxGeometry>
        </mxCell>
        <mxCell id="TPMHrRKmsCWebkbTURFH-43" value="元素下边低于下拼接线&lt;div&gt;不整体移动&lt;/div&gt;" style="whiteSpace=wrap;html=1;rounded=0;" vertex="1" parent="1">
          <mxGeometry x="430" y="970" width="130" height="60" as="geometry" />
        </mxCell>
        <mxCell id="TPMHrRKmsCWebkbTURFH-44" style="edgeStyle=orthogonalEdgeStyle;rounded=0;orthogonalLoop=1;jettySize=auto;html=1;" edge="1" parent="1" source="TPMHrRKmsCWebkbTURFH-45" target="TPMHrRKmsCWebkbTURFH-49">
          <mxGeometry relative="1" as="geometry" />
        </mxCell>
        <mxCell id="TPMHrRKmsCWebkbTURFH-45" value="元素下边低于上拼接线&lt;div&gt;整体上移下方&lt;/div&gt;" style="whiteSpace=wrap;html=1;rounded=0;" vertex="1" parent="1">
          <mxGeometry x="650" y="970" width="130" height="60" as="geometry" />
        </mxCell>
        <mxCell id="TPMHrRKmsCWebkbTURFH-46" style="edgeStyle=orthogonalEdgeStyle;rounded=0;orthogonalLoop=1;jettySize=auto;html=1;" edge="1" parent="1" source="TPMHrRKmsCWebkbTURFH-47" target="TPMHrRKmsCWebkbTURFH-50">
          <mxGeometry relative="1" as="geometry" />
        </mxCell>
        <mxCell id="TPMHrRKmsCWebkbTURFH-47" value="元素下边低于下拼接线&lt;div&gt;整体上移上方&lt;/div&gt;" style="whiteSpace=wrap;html=1;rounded=0;" vertex="1" parent="1">
          <mxGeometry x="895" y="970" width="140" height="60" as="geometry" />
        </mxCell>
        <mxCell id="TPMHrRKmsCWebkbTURFH-48" value="&lt;div style=&quot;background-color: rgb(31, 31, 31); font-family: &amp;quot;JetBrains Mono&amp;quot;, Consolas, &amp;quot;Courier New&amp;quot;, monospace, Consolas, &amp;quot;Courier New&amp;quot;, monospace; font-size: 14px; line-height: 19px; white-space-collapse: preserve; color: rgb(204, 204, 204);&quot;&gt;&lt;span style=&quot;background-color: transparent; color: rgb(156, 220, 254);&quot;&gt;currentBottomY&lt;/span&gt;&lt;font style=&quot;background-color: transparent;&quot; color=&quot;#cccccc&quot;&gt; &lt;/font&gt;&lt;span style=&quot;background-color: transparent; color: rgb(212, 212, 212);&quot;&gt;+&lt;/span&gt;&lt;font style=&quot;background-color: transparent;&quot; color=&quot;#cccccc&quot;&gt; &lt;/font&gt;&lt;span style=&quot;background-color: transparent; color: rgb(156, 220, 254);&quot;&gt;deltaY&lt;/span&gt;&lt;span style=&quot;color: rgb(204, 204, 204);&quot;&gt; &lt;/span&gt;&lt;font color=&quot;#d4d4d4&quot;&gt;&amp;gt;=&lt;/font&gt;&lt;span style=&quot;color: rgb(156, 220, 254);&quot;&gt;bottomSplicingLine&lt;/span&gt;&lt;span style=&quot;color: rgb(204, 204, 204);&quot;&gt;-&amp;gt;&lt;/span&gt;&lt;span style=&quot;color: rgb(220, 220, 170);&quot;&gt;line&lt;/span&gt;&lt;span style=&quot;color: rgb(204, 204, 204);&quot;&gt;().&lt;/span&gt;&lt;span style=&quot;color: rgb(220, 220, 170);&quot;&gt;y1&lt;/span&gt;&lt;span style=&quot;color: rgb(204, 204, 204);&quot;&gt;()&lt;/span&gt;&lt;span style=&quot;color: rgb(204, 204, 204);&quot;&gt; &lt;/span&gt;&lt;/div&gt;" style="text;html=1;align=center;verticalAlign=middle;resizable=0;points=[];autosize=1;strokeColor=none;fillColor=none;" vertex="1" parent="1">
          <mxGeometry x="190" y="1080" width="510" height="30" as="geometry" />
        </mxCell>
        <mxCell id="TPMHrRKmsCWebkbTURFH-49" value="&lt;div style=&quot;background-color: rgb(31, 31, 31); font-family: &amp;quot;JetBrains Mono&amp;quot;, Consolas, &amp;quot;Courier New&amp;quot;, monospace, Consolas, &amp;quot;Courier New&amp;quot;, monospace; font-size: 14px; line-height: 19px; white-space-collapse: preserve; color: rgb(204, 204, 204);&quot;&gt;&lt;span style=&quot;background-color: transparent; color: rgb(156, 220, 254);&quot;&gt;currentBottomY&lt;/span&gt;&lt;font style=&quot;background-color: transparent;&quot; color=&quot;#cccccc&quot;&gt; &lt;/font&gt;&lt;span style=&quot;background-color: transparent; color: rgb(212, 212, 212);&quot;&gt;+&lt;/span&gt;&lt;font style=&quot;background-color: transparent;&quot; color=&quot;#cccccc&quot;&gt; &lt;/font&gt;&lt;span style=&quot;background-color: transparent; color: rgb(156, 220, 254);&quot;&gt;deltaY&lt;/span&gt;&lt;span style=&quot;color: rgb(204, 204, 204);&quot;&gt; &lt;/span&gt;&lt;font color=&quot;#d4d4d4&quot;&gt;&amp;gt;=&lt;/font&gt;&lt;span style=&quot;color: rgb(156, 220, 254);&quot;&gt;topSplicingLine&lt;/span&gt;&lt;span style=&quot;color: rgb(204, 204, 204);&quot;&gt;-&amp;gt;&lt;/span&gt;&lt;span style=&quot;color: rgb(220, 220, 170);&quot;&gt;line&lt;/span&gt;&lt;span style=&quot;color: rgb(204, 204, 204);&quot;&gt;().&lt;/span&gt;&lt;span style=&quot;color: rgb(220, 220, 170);&quot;&gt;y1&lt;/span&gt;&lt;span style=&quot;color: rgb(204, 204, 204);&quot;&gt;()&lt;/span&gt;&lt;span style=&quot;color: rgb(204, 204, 204);&quot;&gt; &lt;/span&gt;&lt;br&gt;&lt;/div&gt;&lt;div style=&quot;background-color: rgb(31, 31, 31); font-family: &amp;quot;JetBrains Mono&amp;quot;, Consolas, &amp;quot;Courier New&amp;quot;, monospace, Consolas, &amp;quot;Courier New&amp;quot;, monospace; font-size: 14px; line-height: 19px; white-space-collapse: preserve; color: rgb(204, 204, 204);&quot;&gt;&lt;div style=&quot;line-height: 19px;&quot;&gt;&lt;span style=&quot;color: #dcdcaa;&quot;&gt;moveElementsBelow&lt;/span&gt;(&lt;span style=&quot;color: #9cdcfe;&quot;&gt;currentBottomY&lt;/span&gt;, &lt;span style=&quot;color: #9cdcfe;&quot;&gt;deltaY&lt;/span&gt;);&lt;/div&gt;&lt;/div&gt;" style="text;html=1;align=center;verticalAlign=middle;resizable=0;points=[];autosize=1;strokeColor=none;fillColor=none;" vertex="1" parent="1">
          <mxGeometry x="470" y="1180" width="490" height="50" as="geometry" />
        </mxCell>
        <mxCell id="TPMHrRKmsCWebkbTURFH-50" value="&lt;div style=&quot;background-color: rgb(31, 31, 31); font-family: &amp;quot;JetBrains Mono&amp;quot;, Consolas, &amp;quot;Courier New&amp;quot;, monospace, Consolas, &amp;quot;Courier New&amp;quot;, monospace; font-size: 14px; line-height: 19px; white-space-collapse: preserve; color: rgb(204, 204, 204);&quot;&gt;&lt;span style=&quot;background-color: transparent; color: rgb(156, 220, 254);&quot;&gt;currentBottomY&lt;/span&gt;&lt;font style=&quot;background-color: transparent;&quot; color=&quot;#cccccc&quot;&gt; &lt;/font&gt;&lt;span style=&quot;background-color: transparent; color: rgb(212, 212, 212);&quot;&gt;+&lt;/span&gt;&lt;font style=&quot;background-color: transparent;&quot; color=&quot;#cccccc&quot;&gt; &lt;/font&gt;&lt;span style=&quot;background-color: transparent; color: rgb(156, 220, 254);&quot;&gt;deltaY&lt;/span&gt;&lt;span style=&quot;color: rgb(204, 204, 204);&quot;&gt; &lt;/span&gt;&lt;font color=&quot;#d4d4d4&quot;&gt;&amp;gt;=&lt;/font&gt;&lt;span style=&quot;color: rgb(156, 220, 254);&quot;&gt;bottomSplicingLine&lt;/span&gt;&lt;span style=&quot;color: rgb(204, 204, 204);&quot;&gt;-&amp;gt;&lt;/span&gt;&lt;span style=&quot;color: rgb(220, 220, 170);&quot;&gt;line&lt;/span&gt;&lt;span style=&quot;color: rgb(204, 204, 204);&quot;&gt;().&lt;/span&gt;&lt;span style=&quot;color: rgb(220, 220, 170);&quot;&gt;y1&lt;/span&gt;&lt;span style=&quot;color: rgb(204, 204, 204);&quot;&gt;()&lt;/span&gt;&lt;span style=&quot;color: rgb(204, 204, 204);&quot;&gt; &lt;/span&gt;&lt;/div&gt;&lt;div style=&quot;background-color: rgb(31, 31, 31); font-family: &amp;quot;JetBrains Mono&amp;quot;, Consolas, &amp;quot;Courier New&amp;quot;, monospace, Consolas, &amp;quot;Courier New&amp;quot;, monospace; font-size: 14px; line-height: 19px; white-space-collapse: preserve; color: rgb(204, 204, 204);&quot;&gt;&lt;div style=&quot;line-height: 19px;&quot;&gt;&lt;span style=&quot;color: rgb(220, 220, 170);&quot;&gt;moveElementsAbove&lt;/span&gt;(&lt;span style=&quot;color: rgb(156, 220, 254);&quot;&gt;currentTopY&lt;/span&gt;&lt;span style=&quot;color: rgb(204, 204, 204);&quot;&gt; &lt;/span&gt;, &lt;span style=&quot;color: #9cdcfe;&quot;&gt;deltaY&lt;/span&gt;);&lt;/div&gt;&lt;/div&gt;" style="text;html=1;align=center;verticalAlign=middle;resizable=0;points=[];autosize=1;strokeColor=none;fillColor=none;" vertex="1" parent="1">
          <mxGeometry x="710" y="1260" width="510" height="50" as="geometry" />
        </mxCell>
        <mxCell id="TPMHrRKmsCWebkbTURFH-51" style="edgeStyle=orthogonalEdgeStyle;rounded=0;orthogonalLoop=1;jettySize=auto;html=1;" edge="1" parent="1" source="TPMHrRKmsCWebkbTURFH-52" target="TPMHrRKmsCWebkbTURFH-53">
          <mxGeometry relative="1" as="geometry" />
        </mxCell>
        <mxCell id="TPMHrRKmsCWebkbTURFH-52" value="元素下边低于上拼接线&lt;div&gt;不整体移动&lt;/div&gt;" style="whiteSpace=wrap;html=1;rounded=0;" vertex="1" parent="1">
          <mxGeometry x="1100" y="970" width="130" height="60" as="geometry" />
        </mxCell>
        <mxCell id="TPMHrRKmsCWebkbTURFH-53" value="&lt;div style=&quot;background-color: rgb(31, 31, 31); font-family: &amp;quot;JetBrains Mono&amp;quot;, Consolas, &amp;quot;Courier New&amp;quot;, monospace, Consolas, &amp;quot;Courier New&amp;quot;, monospace; font-size: 14px; line-height: 19px; white-space-collapse: preserve; color: rgb(204, 204, 204);&quot;&gt;&lt;span style=&quot;background-color: transparent; color: rgb(156, 220, 254);&quot;&gt;currentBottomY&lt;/span&gt;&lt;font style=&quot;background-color: transparent;&quot; color=&quot;#cccccc&quot;&gt; &lt;/font&gt;&lt;span style=&quot;background-color: transparent; color: rgb(212, 212, 212);&quot;&gt;+&lt;/span&gt;&lt;font style=&quot;background-color: transparent;&quot; color=&quot;#cccccc&quot;&gt; &lt;/font&gt;&lt;span style=&quot;background-color: transparent; color: rgb(156, 220, 254);&quot;&gt;deltaY&lt;/span&gt;&lt;span style=&quot;color: rgb(204, 204, 204);&quot;&gt; &lt;/span&gt;&lt;font color=&quot;#d4d4d4&quot;&gt;&amp;gt;=&lt;/font&gt;&lt;span style=&quot;color: rgb(156, 220, 254);&quot;&gt;topSplicingLine&lt;/span&gt;&lt;span style=&quot;color: rgb(204, 204, 204);&quot;&gt;-&amp;gt;&lt;/span&gt;&lt;span style=&quot;color: rgb(220, 220, 170);&quot;&gt;line&lt;/span&gt;&lt;span style=&quot;color: rgb(204, 204, 204);&quot;&gt;().&lt;/span&gt;&lt;span style=&quot;color: rgb(220, 220, 170);&quot;&gt;y1&lt;/span&gt;&lt;span style=&quot;color: rgb(204, 204, 204);&quot;&gt;()&lt;/span&gt;&lt;span style=&quot;color: rgb(204, 204, 204);&quot;&gt; &lt;/span&gt;&lt;/div&gt;" style="text;html=1;align=center;verticalAlign=middle;resizable=0;points=[];autosize=1;strokeColor=none;fillColor=none;" vertex="1" parent="1">
          <mxGeometry x="920" y="1080" width="490" height="30" as="geometry" />
        </mxCell>
        <mxCell id="TPMHrRKmsCWebkbTURFH-54" style="edgeStyle=orthogonalEdgeStyle;rounded=0;orthogonalLoop=1;jettySize=auto;html=1;" edge="1" parent="1" source="TPMHrRKmsCWebkbTURFH-55" target="TPMHrRKmsCWebkbTURFH-64">
          <mxGeometry relative="1" as="geometry" />
        </mxCell>
        <mxCell id="TPMHrRKmsCWebkbTURFH-55" value="元素上边高于下拼接线&lt;div&gt;不整体移动&lt;/div&gt;" style="whiteSpace=wrap;html=1;rounded=0;" vertex="1" parent="1">
          <mxGeometry x="1485" y="970" width="140" height="60" as="geometry" />
        </mxCell>
        <mxCell id="TPMHrRKmsCWebkbTURFH-56" style="edgeStyle=orthogonalEdgeStyle;rounded=0;orthogonalLoop=1;jettySize=auto;html=1;" edge="1" parent="1" source="TPMHrRKmsCWebkbTURFH-57" target="TPMHrRKmsCWebkbTURFH-65">
          <mxGeometry relative="1" as="geometry" />
        </mxCell>
        <mxCell id="TPMHrRKmsCWebkbTURFH-57" value="元素上边高于上拼接线&lt;div&gt;整体下移下方&lt;/div&gt;" style="whiteSpace=wrap;html=1;rounded=0;" vertex="1" parent="1">
          <mxGeometry x="1710" y="970" width="130" height="60" as="geometry" />
        </mxCell>
        <mxCell id="TPMHrRKmsCWebkbTURFH-58" style="edgeStyle=orthogonalEdgeStyle;rounded=0;orthogonalLoop=1;jettySize=auto;html=1;" edge="1" parent="1" source="TPMHrRKmsCWebkbTURFH-59" target="TPMHrRKmsCWebkbTURFH-66">
          <mxGeometry relative="1" as="geometry" />
        </mxCell>
        <mxCell id="TPMHrRKmsCWebkbTURFH-59" value="元素上边高于下拼接线&lt;div&gt;整体下移上方&lt;/div&gt;" style="whiteSpace=wrap;html=1;rounded=0;" vertex="1" parent="1">
          <mxGeometry x="2000" y="970" width="130" height="60" as="geometry" />
        </mxCell>
        <mxCell id="TPMHrRKmsCWebkbTURFH-60" style="edgeStyle=orthogonalEdgeStyle;rounded=0;orthogonalLoop=1;jettySize=auto;html=1;" edge="1" parent="1" source="TPMHrRKmsCWebkbTURFH-61" target="TPMHrRKmsCWebkbTURFH-67">
          <mxGeometry relative="1" as="geometry" />
        </mxCell>
        <mxCell id="TPMHrRKmsCWebkbTURFH-61" value="元素上边高于上拼接线&lt;div&gt;不整体移动&lt;/div&gt;" style="whiteSpace=wrap;html=1;rounded=0;" vertex="1" parent="1">
          <mxGeometry x="2181" y="970" width="130" height="60" as="geometry" />
        </mxCell>
        <mxCell id="TPMHrRKmsCWebkbTURFH-64" value="&lt;div style=&quot;background-color: rgb(31, 31, 31); font-family: &amp;quot;JetBrains Mono&amp;quot;, Consolas, &amp;quot;Courier New&amp;quot;, monospace, Consolas, &amp;quot;Courier New&amp;quot;, monospace; font-size: 14px; line-height: 19px; white-space-collapse: preserve; color: rgb(204, 204, 204);&quot;&gt;&lt;font style=&quot;background-color: transparent;&quot; color=&quot;#cccccc&quot;&gt;&lt;span style=&quot;color: rgb(156, 220, 254);&quot;&gt;currentTopY&lt;/span&gt; &lt;/font&gt;&lt;span style=&quot;color: rgb(212, 212, 212); background-color: transparent;&quot;&gt;+&lt;/span&gt;&lt;font style=&quot;background-color: transparent;&quot; color=&quot;#cccccc&quot;&gt; &lt;/font&gt;&lt;span style=&quot;color: rgb(156, 220, 254); background-color: transparent;&quot;&gt;deltaY&lt;/span&gt;&lt;span style=&quot;color: rgb(204, 204, 204);&quot;&gt; &lt;/span&gt;&lt;span style=&quot;color: rgb(204, 204, 204);&quot;&gt;&lt;font color=&quot;#d4d4d4&quot;&gt;&amp;lt;=&lt;/font&gt;&lt;/span&gt;&lt;span style=&quot;color: rgb(156, 220, 254);&quot;&gt;bottomSplicingLine&lt;/span&gt;&lt;span style=&quot;color: rgb(204, 204, 204);&quot;&gt;-&amp;gt;&lt;/span&gt;&lt;span style=&quot;color: rgb(220, 220, 170);&quot;&gt;line&lt;/span&gt;&lt;span style=&quot;color: rgb(204, 204, 204);&quot;&gt;().&lt;/span&gt;&lt;span style=&quot;color: rgb(220, 220, 170);&quot;&gt;y1&lt;/span&gt;&lt;span style=&quot;color: rgb(204, 204, 204);&quot;&gt;()&lt;/span&gt;&lt;span style=&quot;color: rgb(204, 204, 204);&quot;&gt; &lt;/span&gt;&lt;/div&gt;" style="text;html=1;align=center;verticalAlign=middle;resizable=0;points=[];autosize=1;strokeColor=none;fillColor=none;" vertex="1" parent="1">
          <mxGeometry x="1310" y="1130" width="490" height="30" as="geometry" />
        </mxCell>
        <mxCell id="TPMHrRKmsCWebkbTURFH-65" value="&lt;div style=&quot;background-color: rgb(31, 31, 31); font-family: &amp;quot;JetBrains Mono&amp;quot;, Consolas, &amp;quot;Courier New&amp;quot;, monospace, Consolas, &amp;quot;Courier New&amp;quot;, monospace; font-size: 14px; line-height: 19px; white-space-collapse: preserve; color: rgb(204, 204, 204);&quot;&gt;&lt;span style=&quot;color: rgb(212, 212, 212); background-color: transparent;&quot;&gt;&lt;span style=&quot;color: rgb(156, 220, 254);&quot;&gt;currentTopY&lt;/span&gt;&lt;span style=&quot;color: rgb(204, 204, 204);&quot;&gt; &lt;/span&gt;+&lt;/span&gt;&lt;font style=&quot;background-color: transparent;&quot; color=&quot;#cccccc&quot;&gt; &lt;/font&gt;&lt;span style=&quot;color: rgb(156, 220, 254); background-color: transparent;&quot;&gt;deltaY&lt;/span&gt;&lt;span style=&quot;color: rgb(204, 204, 204);&quot;&gt; &lt;/span&gt;&lt;span style=&quot;color: rgb(204, 204, 204);&quot;&gt;&lt;font color=&quot;#d4d4d4&quot;&gt;&amp;lt;=&lt;/font&gt;&lt;/span&gt;&lt;span style=&quot;color: rgb(156, 220, 254);&quot;&gt;topSplicingLine&lt;/span&gt;&lt;span style=&quot;color: rgb(204, 204, 204);&quot;&gt;-&amp;gt;&lt;/span&gt;&lt;span style=&quot;color: rgb(220, 220, 170);&quot;&gt;line&lt;/span&gt;&lt;span style=&quot;color: rgb(204, 204, 204);&quot;&gt;().&lt;/span&gt;&lt;span style=&quot;color: rgb(220, 220, 170);&quot;&gt;y1&lt;/span&gt;&lt;span style=&quot;color: rgb(204, 204, 204);&quot;&gt;()&lt;/span&gt;&lt;span style=&quot;color: rgb(204, 204, 204);&quot;&gt; &lt;/span&gt;&lt;/div&gt;&lt;div style=&quot;background-color: rgb(31, 31, 31); font-family: &amp;quot;JetBrains Mono&amp;quot;, Consolas, &amp;quot;Courier New&amp;quot;, monospace, Consolas, &amp;quot;Courier New&amp;quot;, monospace; font-size: 14px; line-height: 19px; white-space-collapse: preserve; color: rgb(204, 204, 204);&quot;&gt;&lt;div style=&quot;line-height: 19px;&quot;&gt;&lt;span style=&quot;color: rgb(220, 220, 170);&quot;&gt;moveElementsBelow&lt;/span&gt;(&lt;span style=&quot;color: #9cdcfe;&quot;&gt;currentBottomY&lt;/span&gt;, &lt;span style=&quot;color: #9cdcfe;&quot;&gt;deltaY&lt;/span&gt;);&lt;/div&gt;&lt;/div&gt;" style="text;html=1;align=center;verticalAlign=middle;resizable=0;points=[];autosize=1;strokeColor=none;fillColor=none;" vertex="1" parent="1">
          <mxGeometry x="1545" y="1220" width="460" height="50" as="geometry" />
        </mxCell>
        <mxCell id="TPMHrRKmsCWebkbTURFH-66" value="&lt;div style=&quot;background-color: rgb(31, 31, 31); font-family: &amp;quot;JetBrains Mono&amp;quot;, Consolas, &amp;quot;Courier New&amp;quot;, monospace, Consolas, &amp;quot;Courier New&amp;quot;, monospace; font-size: 14px; line-height: 19px; white-space-collapse: preserve; color: rgb(204, 204, 204);&quot;&gt;&lt;span style=&quot;color: rgb(212, 212, 212); background-color: transparent;&quot;&gt;&lt;span style=&quot;color: rgb(156, 220, 254);&quot;&gt;currentTopY&lt;/span&gt;&lt;span style=&quot;color: rgb(204, 204, 204);&quot;&gt; &lt;/span&gt;+&lt;/span&gt;&lt;font style=&quot;background-color: transparent;&quot; color=&quot;#cccccc&quot;&gt; &lt;/font&gt;&lt;span style=&quot;color: rgb(156, 220, 254); background-color: transparent;&quot;&gt;deltaY&lt;/span&gt;&lt;span style=&quot;color: rgb(204, 204, 204);&quot;&gt; &lt;/span&gt;&lt;span style=&quot;color: rgb(204, 204, 204);&quot;&gt;&lt;font color=&quot;#d4d4d4&quot;&gt;&amp;lt;=&lt;/font&gt;&lt;/span&gt;&lt;span style=&quot;color: rgb(156, 220, 254);&quot;&gt;bottomSplicingLine&lt;/span&gt;&lt;span style=&quot;color: rgb(204, 204, 204);&quot;&gt;-&amp;gt;&lt;/span&gt;&lt;span style=&quot;color: rgb(220, 220, 170);&quot;&gt;line&lt;/span&gt;&lt;span style=&quot;color: rgb(204, 204, 204);&quot;&gt;().&lt;/span&gt;&lt;span style=&quot;color: rgb(220, 220, 170);&quot;&gt;y1&lt;/span&gt;&lt;span style=&quot;color: rgb(204, 204, 204);&quot;&gt;()&lt;/span&gt;&lt;span style=&quot;color: rgb(204, 204, 204);&quot;&gt; &lt;/span&gt;&lt;/div&gt;&lt;div style=&quot;background-color: rgb(31, 31, 31); font-family: &amp;quot;JetBrains Mono&amp;quot;, Consolas, &amp;quot;Courier New&amp;quot;, monospace, Consolas, &amp;quot;Courier New&amp;quot;, monospace; font-size: 14px; line-height: 19px; white-space-collapse: preserve; color: rgb(204, 204, 204);&quot;&gt;&lt;div style=&quot;line-height: 19px;&quot;&gt;&lt;span style=&quot;color: rgb(220, 220, 170); background-color: light-dark(rgb(31, 31, 31), rgb(210, 210, 210));&quot;&gt;moveElementsAbove&lt;/span&gt;(&lt;span style=&quot;color: rgb(156, 220, 254);&quot;&gt;currentTopY&lt;/span&gt;&lt;span style=&quot;color: rgb(204, 204, 204);&quot;&gt; &lt;/span&gt;, &lt;span style=&quot;color: rgb(156, 220, 254);&quot;&gt;deltaY&lt;/span&gt;);&lt;/div&gt;&lt;/div&gt;" style="text;html=1;align=center;verticalAlign=middle;resizable=0;points=[];autosize=1;strokeColor=none;fillColor=none;" vertex="1" parent="1">
          <mxGeometry x="1820" y="1120" width="490" height="50" as="geometry" />
        </mxCell>
        <mxCell id="TPMHrRKmsCWebkbTURFH-67" value="&lt;div style=&quot;background-color: rgb(31, 31, 31); font-family: &amp;quot;JetBrains Mono&amp;quot;, Consolas, &amp;quot;Courier New&amp;quot;, monospace, Consolas, &amp;quot;Courier New&amp;quot;, monospace; font-size: 14px; line-height: 19px; white-space-collapse: preserve; color: rgb(204, 204, 204);&quot;&gt;&lt;font style=&quot;background-color: transparent;&quot; color=&quot;#cccccc&quot;&gt;&lt;span style=&quot;color: rgb(156, 220, 254);&quot;&gt;currentTopY&lt;/span&gt; &lt;/font&gt;&lt;span style=&quot;color: rgb(212, 212, 212); background-color: transparent;&quot;&gt;+&lt;/span&gt;&lt;font style=&quot;background-color: transparent;&quot; color=&quot;#cccccc&quot;&gt; &lt;/font&gt;&lt;span style=&quot;color: rgb(156, 220, 254); background-color: transparent;&quot;&gt;deltaY&lt;/span&gt;&lt;span style=&quot;color: rgb(204, 204, 204);&quot;&gt; &lt;/span&gt;&lt;span style=&quot;color: rgb(204, 204, 204);&quot;&gt;&lt;font color=&quot;#d4d4d4&quot;&gt;&amp;lt;=&lt;/font&gt;&lt;/span&gt;&lt;span style=&quot;color: rgb(156, 220, 254);&quot;&gt;topSplicingLine&lt;/span&gt;&lt;span style=&quot;color: rgb(204, 204, 204);&quot;&gt;-&amp;gt;&lt;/span&gt;&lt;span style=&quot;color: rgb(220, 220, 170);&quot;&gt;line&lt;/span&gt;&lt;span style=&quot;color: rgb(204, 204, 204);&quot;&gt;().&lt;/span&gt;&lt;span style=&quot;color: rgb(220, 220, 170);&quot;&gt;y1&lt;/span&gt;&lt;span style=&quot;color: rgb(204, 204, 204);&quot;&gt;()&lt;/span&gt;&lt;span style=&quot;color: rgb(204, 204, 204);&quot;&gt; &lt;/span&gt;&lt;/div&gt;" style="text;html=1;align=center;verticalAlign=middle;resizable=0;points=[];autosize=1;strokeColor=none;fillColor=none;" vertex="1" parent="1">
          <mxGeometry x="2015" y="1250" width="460" height="30" as="geometry" />
        </mxCell>
        <mxCell id="2hVYgdQiKfmXYt5QFr26-1" value="" style="edgeStyle=orthogonalEdgeStyle;rounded=0;orthogonalLoop=1;jettySize=auto;html=1;" edge="1" parent="1" source="2hVYgdQiKfmXYt5QFr26-3" target="2hVYgdQiKfmXYt5QFr26-7">
          <mxGeometry relative="1" as="geometry" />
        </mxCell>
        <mxCell id="2hVYgdQiKfmXYt5QFr26-2" value="" style="edgeStyle=orthogonalEdgeStyle;rounded=0;orthogonalLoop=1;jettySize=auto;html=1;" edge="1" parent="1" source="2hVYgdQiKfmXYt5QFr26-3" target="2hVYgdQiKfmXYt5QFr26-11">
          <mxGeometry relative="1" as="geometry" />
        </mxCell>
        <mxCell id="2hVYgdQiKfmXYt5QFr26-3" value="水平拼接" style="rounded=0;whiteSpace=wrap;html=1;" vertex="1" parent="1">
          <mxGeometry x="3520" y="430" width="120" height="60" as="geometry" />
        </mxCell>
        <mxCell id="2hVYgdQiKfmXYt5QFr26-4" style="edgeStyle=orthogonalEdgeStyle;rounded=0;orthogonalLoop=1;jettySize=auto;html=1;entryX=0.5;entryY=0;entryDx=0;entryDy=0;" edge="1" parent="1" source="2hVYgdQiKfmXYt5QFr26-7" target="2hVYgdQiKfmXYt5QFr26-13">
          <mxGeometry relative="1" as="geometry" />
        </mxCell>
        <mxCell id="2hVYgdQiKfmXYt5QFr26-5" value="" style="edgeStyle=orthogonalEdgeStyle;rounded=0;orthogonalLoop=1;jettySize=auto;html=1;" edge="1" parent="1" source="2hVYgdQiKfmXYt5QFr26-7" target="2hVYgdQiKfmXYt5QFr26-16">
          <mxGeometry relative="1" as="geometry" />
        </mxCell>
        <mxCell id="2hVYgdQiKfmXYt5QFr26-6" value="" style="edgeStyle=orthogonalEdgeStyle;rounded=0;orthogonalLoop=1;jettySize=auto;html=1;" edge="1" parent="1" source="2hVYgdQiKfmXYt5QFr26-7" target="2hVYgdQiKfmXYt5QFr26-18">
          <mxGeometry relative="1" as="geometry" />
        </mxCell>
        <mxCell id="2hVYgdQiKfmXYt5QFr26-7" value="左移" style="whiteSpace=wrap;html=1;rounded=0;" vertex="1" parent="1">
          <mxGeometry x="3015" y="550" width="120" height="60" as="geometry" />
        </mxCell>
        <mxCell id="2hVYgdQiKfmXYt5QFr26-8" value="" style="edgeStyle=orthogonalEdgeStyle;rounded=0;orthogonalLoop=1;jettySize=auto;html=1;" edge="1" parent="1" source="2hVYgdQiKfmXYt5QFr26-11" target="2hVYgdQiKfmXYt5QFr26-21">
          <mxGeometry relative="1" as="geometry" />
        </mxCell>
        <mxCell id="2hVYgdQiKfmXYt5QFr26-9" value="" style="edgeStyle=orthogonalEdgeStyle;rounded=0;orthogonalLoop=1;jettySize=auto;html=1;" edge="1" parent="1" source="2hVYgdQiKfmXYt5QFr26-11" target="2hVYgdQiKfmXYt5QFr26-23">
          <mxGeometry relative="1" as="geometry" />
        </mxCell>
        <mxCell id="2hVYgdQiKfmXYt5QFr26-10" value="" style="edgeStyle=orthogonalEdgeStyle;rounded=0;orthogonalLoop=1;jettySize=auto;html=1;" edge="1" parent="1" source="2hVYgdQiKfmXYt5QFr26-11" target="2hVYgdQiKfmXYt5QFr26-25">
          <mxGeometry relative="1" as="geometry" />
        </mxCell>
        <mxCell id="2hVYgdQiKfmXYt5QFr26-11" value="右移" style="whiteSpace=wrap;html=1;rounded=0;" vertex="1" parent="1">
          <mxGeometry x="4095" y="550" width="120" height="60" as="geometry" />
        </mxCell>
        <mxCell id="2hVYgdQiKfmXYt5QFr26-12" value="" style="edgeStyle=orthogonalEdgeStyle;rounded=0;orthogonalLoop=1;jettySize=auto;html=1;" edge="1" parent="1" source="2hVYgdQiKfmXYt5QFr26-13" target="2hVYgdQiKfmXYt5QFr26-27">
          <mxGeometry relative="1" as="geometry" />
        </mxCell>
        <mxCell id="2hVYgdQiKfmXYt5QFr26-13" value="最左" style="whiteSpace=wrap;html=1;rounded=0;" vertex="1" parent="1">
          <mxGeometry x="2665" y="690" width="120" height="60" as="geometry" />
        </mxCell>
        <mxCell id="2hVYgdQiKfmXYt5QFr26-14" value="" style="edgeStyle=orthogonalEdgeStyle;rounded=0;orthogonalLoop=1;jettySize=auto;html=1;" edge="1" parent="1" source="2hVYgdQiKfmXYt5QFr26-16" target="2hVYgdQiKfmXYt5QFr26-29">
          <mxGeometry relative="1" as="geometry" />
        </mxCell>
        <mxCell id="2hVYgdQiKfmXYt5QFr26-15" value="" style="edgeStyle=orthogonalEdgeStyle;rounded=0;orthogonalLoop=1;jettySize=auto;html=1;" edge="1" parent="1" source="2hVYgdQiKfmXYt5QFr26-16" target="2hVYgdQiKfmXYt5QFr26-31">
          <mxGeometry relative="1" as="geometry">
            <Array as="points">
              <mxPoint x="3195" y="720" />
            </Array>
          </mxGeometry>
        </mxCell>
        <mxCell id="2hVYgdQiKfmXYt5QFr26-16" value="中间" style="whiteSpace=wrap;html=1;rounded=0;" vertex="1" parent="1">
          <mxGeometry x="3015" y="690" width="120" height="60" as="geometry" />
        </mxCell>
        <mxCell id="2hVYgdQiKfmXYt5QFr26-17" value="" style="edgeStyle=orthogonalEdgeStyle;rounded=0;orthogonalLoop=1;jettySize=auto;html=1;" edge="1" parent="1" source="2hVYgdQiKfmXYt5QFr26-18" target="2hVYgdQiKfmXYt5QFr26-33">
          <mxGeometry relative="1" as="geometry" />
        </mxCell>
        <mxCell id="2hVYgdQiKfmXYt5QFr26-18" value="最右" style="whiteSpace=wrap;html=1;rounded=0;" vertex="1" parent="1">
          <mxGeometry x="3335" y="690" width="120" height="60" as="geometry" />
        </mxCell>
        <mxCell id="2hVYgdQiKfmXYt5QFr26-19" value="" style="edgeStyle=orthogonalEdgeStyle;rounded=0;orthogonalLoop=1;jettySize=auto;html=1;" edge="1" parent="1" source="2hVYgdQiKfmXYt5QFr26-21" target="2hVYgdQiKfmXYt5QFr26-37">
          <mxGeometry relative="1" as="geometry" />
        </mxCell>
        <mxCell id="2hVYgdQiKfmXYt5QFr26-20" value="" style="edgeStyle=orthogonalEdgeStyle;rounded=0;orthogonalLoop=1;jettySize=auto;html=1;" edge="1" parent="1" source="2hVYgdQiKfmXYt5QFr26-21" target="2hVYgdQiKfmXYt5QFr26-39">
          <mxGeometry relative="1" as="geometry" />
        </mxCell>
        <mxCell id="2hVYgdQiKfmXYt5QFr26-21" value="中间" style="whiteSpace=wrap;html=1;rounded=0;" vertex="1" parent="1">
          <mxGeometry x="4095" y="680" width="120" height="60" as="geometry" />
        </mxCell>
        <mxCell id="2hVYgdQiKfmXYt5QFr26-22" value="" style="edgeStyle=orthogonalEdgeStyle;rounded=0;orthogonalLoop=1;jettySize=auto;html=1;" edge="1" parent="1" source="2hVYgdQiKfmXYt5QFr26-23" target="2hVYgdQiKfmXYt5QFr26-35">
          <mxGeometry relative="1" as="geometry" />
        </mxCell>
        <mxCell id="2hVYgdQiKfmXYt5QFr26-23" value="最左" style="whiteSpace=wrap;html=1;rounded=0;" vertex="1" parent="1">
          <mxGeometry x="3725" y="690" width="120" height="60" as="geometry" />
        </mxCell>
        <mxCell id="2hVYgdQiKfmXYt5QFr26-24" value="" style="edgeStyle=orthogonalEdgeStyle;rounded=0;orthogonalLoop=1;jettySize=auto;html=1;" edge="1" parent="1" source="2hVYgdQiKfmXYt5QFr26-25" target="2hVYgdQiKfmXYt5QFr26-41">
          <mxGeometry relative="1" as="geometry" />
        </mxCell>
        <mxCell id="2hVYgdQiKfmXYt5QFr26-25" value="最右" style="whiteSpace=wrap;html=1;rounded=0;" vertex="1" parent="1">
          <mxGeometry x="4415" y="670" width="120" height="60" as="geometry" />
        </mxCell>
        <mxCell id="2hVYgdQiKfmXYt5QFr26-26" value="" style="edgeStyle=orthogonalEdgeStyle;rounded=0;orthogonalLoop=1;jettySize=auto;html=1;" edge="1" parent="1" source="2hVYgdQiKfmXYt5QFr26-27" target="2hVYgdQiKfmXYt5QFr26-42">
          <mxGeometry relative="1" as="geometry" />
        </mxCell>
        <mxCell id="2hVYgdQiKfmXYt5QFr26-27" value="右拼接线" style="whiteSpace=wrap;html=1;rounded=0;" vertex="1" parent="1">
          <mxGeometry x="2665" y="829" width="120" height="60" as="geometry" />
        </mxCell>
        <mxCell id="2hVYgdQiKfmXYt5QFr26-28" value="" style="edgeStyle=orthogonalEdgeStyle;rounded=0;orthogonalLoop=1;jettySize=auto;html=1;" edge="1" parent="1" source="2hVYgdQiKfmXYt5QFr26-29" target="2hVYgdQiKfmXYt5QFr26-43">
          <mxGeometry relative="1" as="geometry" />
        </mxCell>
        <mxCell id="2hVYgdQiKfmXYt5QFr26-29" value="左拼接线" style="whiteSpace=wrap;html=1;rounded=0;" vertex="1" parent="1">
          <mxGeometry x="2885" y="830" width="120" height="60" as="geometry" />
        </mxCell>
        <mxCell id="2hVYgdQiKfmXYt5QFr26-30" value="" style="edgeStyle=orthogonalEdgeStyle;rounded=0;orthogonalLoop=1;jettySize=auto;html=1;" edge="1" parent="1" source="2hVYgdQiKfmXYt5QFr26-31" target="2hVYgdQiKfmXYt5QFr26-44">
          <mxGeometry relative="1" as="geometry" />
        </mxCell>
        <mxCell id="2hVYgdQiKfmXYt5QFr26-31" value="右拼接线" style="whiteSpace=wrap;html=1;rounded=0;" vertex="1" parent="1">
          <mxGeometry x="3135" y="830" width="120" height="60" as="geometry" />
        </mxCell>
        <mxCell id="2hVYgdQiKfmXYt5QFr26-32" value="" style="edgeStyle=orthogonalEdgeStyle;rounded=0;orthogonalLoop=1;jettySize=auto;html=1;" edge="1" parent="1" source="2hVYgdQiKfmXYt5QFr26-33" target="2hVYgdQiKfmXYt5QFr26-45">
          <mxGeometry relative="1" as="geometry" />
        </mxCell>
        <mxCell id="2hVYgdQiKfmXYt5QFr26-33" value="左拼接线" style="whiteSpace=wrap;html=1;rounded=0;" vertex="1" parent="1">
          <mxGeometry x="3335" y="830" width="120" height="60" as="geometry" />
        </mxCell>
        <mxCell id="2hVYgdQiKfmXYt5QFr26-34" value="" style="edgeStyle=orthogonalEdgeStyle;rounded=0;orthogonalLoop=1;jettySize=auto;html=1;" edge="1" parent="1" source="2hVYgdQiKfmXYt5QFr26-35" target="2hVYgdQiKfmXYt5QFr26-46">
          <mxGeometry relative="1" as="geometry" />
        </mxCell>
        <mxCell id="2hVYgdQiKfmXYt5QFr26-35" value="右拼接线" style="whiteSpace=wrap;html=1;rounded=0;" vertex="1" parent="1">
          <mxGeometry x="3725" y="830" width="120" height="60" as="geometry" />
        </mxCell>
        <mxCell id="2hVYgdQiKfmXYt5QFr26-36" value="" style="edgeStyle=orthogonalEdgeStyle;rounded=0;orthogonalLoop=1;jettySize=auto;html=1;" edge="1" parent="1" source="2hVYgdQiKfmXYt5QFr26-37" target="2hVYgdQiKfmXYt5QFr26-47">
          <mxGeometry relative="1" as="geometry" />
        </mxCell>
        <mxCell id="2hVYgdQiKfmXYt5QFr26-37" value="左拼接线" style="whiteSpace=wrap;html=1;rounded=0;" vertex="1" parent="1">
          <mxGeometry x="3945" y="830" width="120" height="60" as="geometry" />
        </mxCell>
        <mxCell id="2hVYgdQiKfmXYt5QFr26-38" value="" style="edgeStyle=orthogonalEdgeStyle;rounded=0;orthogonalLoop=1;jettySize=auto;html=1;" edge="1" parent="1" source="2hVYgdQiKfmXYt5QFr26-39" target="2hVYgdQiKfmXYt5QFr26-48">
          <mxGeometry relative="1" as="geometry" />
        </mxCell>
        <mxCell id="2hVYgdQiKfmXYt5QFr26-39" value="右拼接线" style="whiteSpace=wrap;html=1;rounded=0;" vertex="1" parent="1">
          <mxGeometry x="4235" y="830" width="120" height="60" as="geometry" />
        </mxCell>
        <mxCell id="2hVYgdQiKfmXYt5QFr26-40" value="" style="edgeStyle=orthogonalEdgeStyle;rounded=0;orthogonalLoop=1;jettySize=auto;html=1;" edge="1" parent="1" source="2hVYgdQiKfmXYt5QFr26-41" target="2hVYgdQiKfmXYt5QFr26-49">
          <mxGeometry relative="1" as="geometry" />
        </mxCell>
        <mxCell id="2hVYgdQiKfmXYt5QFr26-41" value="左拼接线" style="whiteSpace=wrap;html=1;rounded=0;" vertex="1" parent="1">
          <mxGeometry x="4415" y="830" width="120" height="60" as="geometry" />
        </mxCell>
        <mxCell id="2hVYgdQiKfmXYt5QFr26-59" style="rounded=0;orthogonalLoop=1;jettySize=auto;html=1;" edge="1" parent="1" source="2hVYgdQiKfmXYt5QFr26-42" target="2hVYgdQiKfmXYt5QFr26-51">
          <mxGeometry relative="1" as="geometry" />
        </mxCell>
        <mxCell id="2hVYgdQiKfmXYt5QFr26-42" value="元素右边高于右拼接线&lt;div&gt;不整体移动&lt;/div&gt;" style="whiteSpace=wrap;html=1;rounded=0;" vertex="1" parent="1">
          <mxGeometry x="2660" y="970" width="130" height="60" as="geometry" />
        </mxCell>
        <mxCell id="2hVYgdQiKfmXYt5QFr26-63" style="edgeStyle=none;shape=connector;rounded=0;orthogonalLoop=1;jettySize=auto;html=1;entryX=0.5;entryY=0;entryDx=0;entryDy=0;strokeColor=default;align=center;verticalAlign=middle;fontFamily=Helvetica;fontSize=11;fontColor=default;labelBackgroundColor=default;endArrow=classic;" edge="1" parent="1" source="2hVYgdQiKfmXYt5QFr26-43" target="2hVYgdQiKfmXYt5QFr26-52">
          <mxGeometry relative="1" as="geometry" />
        </mxCell>
        <mxCell id="2hVYgdQiKfmXYt5QFr26-43" value="元素右边高于左拼接线&lt;div&gt;整体左移右方&lt;/div&gt;" style="whiteSpace=wrap;html=1;rounded=0;" vertex="1" parent="1">
          <mxGeometry x="2880" y="970" width="130" height="60" as="geometry" />
        </mxCell>
        <mxCell id="2hVYgdQiKfmXYt5QFr26-61" style="edgeStyle=none;shape=connector;rounded=0;orthogonalLoop=1;jettySize=auto;html=1;entryX=0.5;entryY=0;entryDx=0;entryDy=0;strokeColor=default;align=center;verticalAlign=middle;fontFamily=Helvetica;fontSize=11;fontColor=default;labelBackgroundColor=default;endArrow=classic;" edge="1" parent="1" source="2hVYgdQiKfmXYt5QFr26-44" target="2hVYgdQiKfmXYt5QFr26-53">
          <mxGeometry relative="1" as="geometry" />
        </mxCell>
        <mxCell id="2hVYgdQiKfmXYt5QFr26-44" value="元素右边高于左拼接线&lt;div&gt;整体左移左方&lt;/div&gt;" style="whiteSpace=wrap;html=1;rounded=0;" vertex="1" parent="1">
          <mxGeometry x="3125" y="970" width="140" height="60" as="geometry" />
        </mxCell>
        <mxCell id="2hVYgdQiKfmXYt5QFr26-64" style="edgeStyle=none;shape=connector;rounded=0;orthogonalLoop=1;jettySize=auto;html=1;strokeColor=default;align=center;verticalAlign=middle;fontFamily=Helvetica;fontSize=11;fontColor=default;labelBackgroundColor=default;endArrow=classic;" edge="1" parent="1" source="2hVYgdQiKfmXYt5QFr26-45" target="2hVYgdQiKfmXYt5QFr26-54">
          <mxGeometry relative="1" as="geometry" />
        </mxCell>
        <mxCell id="2hVYgdQiKfmXYt5QFr26-45" value="元素右边高于左拼接线&lt;div&gt;不整体移动&lt;/div&gt;" style="whiteSpace=wrap;html=1;rounded=0;" vertex="1" parent="1">
          <mxGeometry x="3330" y="970" width="130" height="60" as="geometry" />
        </mxCell>
        <mxCell id="2hVYgdQiKfmXYt5QFr26-65" style="edgeStyle=none;shape=connector;rounded=0;orthogonalLoop=1;jettySize=auto;html=1;entryX=0.5;entryY=0;entryDx=0;entryDy=0;strokeColor=default;align=center;verticalAlign=middle;fontFamily=Helvetica;fontSize=11;fontColor=default;labelBackgroundColor=default;endArrow=classic;" edge="1" parent="1" source="2hVYgdQiKfmXYt5QFr26-46" target="2hVYgdQiKfmXYt5QFr26-55">
          <mxGeometry relative="1" as="geometry" />
        </mxCell>
        <mxCell id="2hVYgdQiKfmXYt5QFr26-46" value="元素左边低于右拼接线&lt;div&gt;不整体移动&lt;/div&gt;" style="whiteSpace=wrap;html=1;rounded=0;" vertex="1" parent="1">
          <mxGeometry x="3715" y="970" width="140" height="60" as="geometry" />
        </mxCell>
        <mxCell id="2hVYgdQiKfmXYt5QFr26-66" style="edgeStyle=none;shape=connector;rounded=0;orthogonalLoop=1;jettySize=auto;html=1;entryX=0.5;entryY=0;entryDx=0;entryDy=0;strokeColor=default;align=center;verticalAlign=middle;fontFamily=Helvetica;fontSize=11;fontColor=default;labelBackgroundColor=default;endArrow=classic;" edge="1" parent="1" source="2hVYgdQiKfmXYt5QFr26-47" target="2hVYgdQiKfmXYt5QFr26-56">
          <mxGeometry relative="1" as="geometry" />
        </mxCell>
        <mxCell id="2hVYgdQiKfmXYt5QFr26-47" value="元素左边低于左拼接线&lt;div&gt;整体右移右方&lt;/div&gt;" style="whiteSpace=wrap;html=1;rounded=0;" vertex="1" parent="1">
          <mxGeometry x="3940" y="970" width="130" height="60" as="geometry" />
        </mxCell>
        <mxCell id="2hVYgdQiKfmXYt5QFr26-67" style="edgeStyle=none;shape=connector;rounded=0;orthogonalLoop=1;jettySize=auto;html=1;entryX=0.5;entryY=0;entryDx=0;entryDy=0;strokeColor=default;align=center;verticalAlign=middle;fontFamily=Helvetica;fontSize=11;fontColor=default;labelBackgroundColor=default;endArrow=classic;" edge="1" parent="1" source="2hVYgdQiKfmXYt5QFr26-48" target="2hVYgdQiKfmXYt5QFr26-57">
          <mxGeometry relative="1" as="geometry" />
        </mxCell>
        <mxCell id="2hVYgdQiKfmXYt5QFr26-48" value="元素左边低于右拼接线&lt;div&gt;整体右移左方&lt;/div&gt;" style="whiteSpace=wrap;html=1;rounded=0;" vertex="1" parent="1">
          <mxGeometry x="4230" y="970" width="130" height="60" as="geometry" />
        </mxCell>
        <mxCell id="2hVYgdQiKfmXYt5QFr26-68" style="edgeStyle=none;shape=connector;rounded=0;orthogonalLoop=1;jettySize=auto;html=1;entryX=0.5;entryY=0;entryDx=0;entryDy=0;strokeColor=default;align=center;verticalAlign=middle;fontFamily=Helvetica;fontSize=11;fontColor=default;labelBackgroundColor=default;endArrow=classic;" edge="1" parent="1" source="2hVYgdQiKfmXYt5QFr26-49" target="2hVYgdQiKfmXYt5QFr26-58">
          <mxGeometry relative="1" as="geometry" />
        </mxCell>
        <mxCell id="2hVYgdQiKfmXYt5QFr26-49" value="元素左边低于左拼接线&lt;div&gt;不整体移动&lt;/div&gt;" style="whiteSpace=wrap;html=1;rounded=0;" vertex="1" parent="1">
          <mxGeometry x="4411" y="970" width="130" height="60" as="geometry" />
        </mxCell>
        <mxCell id="2hVYgdQiKfmXYt5QFr26-51" value="&lt;div style=&quot;color: #cccccc;background-color: #1f1f1f;font-family: JetBrains Mono,Consolas, &#39;Courier New&#39;, monospace, Consolas, &#39;Courier New&#39;, monospace;font-weight: normal;font-size: 14px;line-height: 19px;white-space: pre;&quot;&gt;&lt;div style=&quot;line-height: 19px;&quot;&gt;&lt;span style=&quot;color: #9cdcfe;&quot;&gt;currentRightX&lt;/span&gt; &lt;span style=&quot;color: #d4d4d4;&quot;&gt;+&lt;/span&gt; &lt;span style=&quot;color: #9cdcfe;&quot;&gt;deltaX&lt;/span&gt; &lt;span style=&quot;color: #d4d4d4;&quot;&gt;&amp;gt;=&lt;/span&gt; &lt;span style=&quot;color: #9cdcfe;&quot;&gt;rightSplicingLine&lt;/span&gt;-&amp;gt;&lt;span style=&quot;color: #dcdcaa;&quot;&gt;line&lt;/span&gt;().&lt;span style=&quot;color: #dcdcaa;&quot;&gt;x1&lt;/span&gt;()&lt;/div&gt;&lt;/div&gt;" style="text;whiteSpace=wrap;html=1;" vertex="1" parent="1">
          <mxGeometry x="2475" y="1070" width="500" height="40" as="geometry" />
        </mxCell>
        <mxCell id="2hVYgdQiKfmXYt5QFr26-52" value="&lt;div style=&quot;color: #cccccc;background-color: #1f1f1f;font-family: JetBrains Mono,Consolas, &#39;Courier New&#39;, monospace, Consolas, &#39;Courier New&#39;, monospace;font-weight: normal;font-size: 14px;line-height: 19px;white-space: pre;&quot;&gt;&lt;div&gt;&lt;span style=&quot;color: #9cdcfe;&quot;&gt;currentRightX&lt;/span&gt;&lt;span style=&quot;color: #cccccc;&quot;&gt; &lt;/span&gt;&lt;span style=&quot;color: #d4d4d4;&quot;&gt;+&lt;/span&gt;&lt;span style=&quot;color: #cccccc;&quot;&gt; &lt;/span&gt;&lt;span style=&quot;color: #9cdcfe;&quot;&gt;deltaX&lt;/span&gt;&lt;span style=&quot;color: #cccccc;&quot;&gt; &lt;/span&gt;&lt;span style=&quot;color: #d4d4d4;&quot;&gt;&amp;gt;=&lt;/span&gt;&lt;span style=&quot;color: #cccccc;&quot;&gt; &lt;/span&gt;&lt;span style=&quot;color: #9cdcfe;&quot;&gt;leftSplicingLine&lt;/span&gt;&lt;span style=&quot;color: #cccccc;&quot;&gt;-&amp;gt;&lt;/span&gt;&lt;span style=&quot;color: #dcdcaa;&quot;&gt;line&lt;/span&gt;&lt;span style=&quot;color: #cccccc;&quot;&gt;().&lt;/span&gt;&lt;span style=&quot;color: #dcdcaa;&quot;&gt;x1&lt;/span&gt;&lt;span style=&quot;color: #cccccc;&quot;&gt;()&lt;/span&gt;&lt;/div&gt;&lt;div&gt;&lt;span style=&quot;color: #cccccc;&quot;&gt;&lt;div style=&quot;line-height: 19px;&quot;&gt;&lt;span style=&quot;color: rgb(220, 220, 170);&quot;&gt;moveElementsRight&lt;/span&gt;(&lt;span style=&quot;color: #9cdcfe;&quot;&gt;currentRightX&lt;/span&gt;, &lt;span style=&quot;color: #9cdcfe;&quot;&gt;deltaX&lt;/span&gt;);&lt;/div&gt;&lt;/span&gt;&lt;/div&gt;&lt;/div&gt;" style="text;whiteSpace=wrap;html=1;" vertex="1" parent="1">
          <mxGeometry x="2695" y="1110" width="500" height="40" as="geometry" />
        </mxCell>
        <mxCell id="2hVYgdQiKfmXYt5QFr26-53" value="&lt;div style=&quot;color: #cccccc;background-color: #1f1f1f;font-family: JetBrains Mono,Consolas, &#39;Courier New&#39;, monospace, Consolas, &#39;Courier New&#39;, monospace;font-weight: normal;font-size: 14px;line-height: 19px;white-space: pre;&quot;&gt;&lt;div&gt;&lt;span style=&quot;color: #9cdcfe;&quot;&gt;currentRightX&lt;/span&gt;&lt;span style=&quot;color: #cccccc;&quot;&gt; &lt;/span&gt;&lt;span style=&quot;color: #d4d4d4;&quot;&gt;+&lt;/span&gt;&lt;span style=&quot;color: #cccccc;&quot;&gt; &lt;/span&gt;&lt;span style=&quot;color: #9cdcfe;&quot;&gt;deltaX&lt;/span&gt;&lt;span style=&quot;color: #cccccc;&quot;&gt; &lt;/span&gt;&lt;span style=&quot;color: #d4d4d4;&quot;&gt;&amp;gt;=&lt;/span&gt;&lt;span style=&quot;color: #cccccc;&quot;&gt; &lt;/span&gt;&lt;span style=&quot;color: #9cdcfe;&quot;&gt;leftSplicingLine&lt;/span&gt;&lt;span style=&quot;color: #cccccc;&quot;&gt;-&amp;gt;&lt;/span&gt;&lt;span style=&quot;color: #dcdcaa;&quot;&gt;line&lt;/span&gt;&lt;span style=&quot;color: #cccccc;&quot;&gt;().&lt;/span&gt;&lt;span style=&quot;color: #dcdcaa;&quot;&gt;x1&lt;/span&gt;&lt;span style=&quot;color: #cccccc;&quot;&gt;()&lt;/span&gt;&lt;/div&gt;&lt;div&gt;&lt;span style=&quot;color: #cccccc;&quot;&gt;&lt;div style=&quot;line-height: 19px;&quot;&gt;&lt;span style=&quot;color: rgb(220, 220, 170);&quot;&gt;moveElementsLeft&lt;/span&gt;(&lt;span style=&quot;color: rgb(156, 220, 254);&quot;&gt;currentLeftX&lt;/span&gt;, &lt;span style=&quot;color: rgb(156, 220, 254);&quot;&gt;deltaX&lt;/span&gt;);&lt;br&gt;&lt;/div&gt;&lt;/span&gt;&lt;/div&gt;&lt;/div&gt;" style="text;whiteSpace=wrap;html=1;" vertex="1" parent="1">
          <mxGeometry x="2945" y="1170" width="500" height="40" as="geometry" />
        </mxCell>
        <mxCell id="2hVYgdQiKfmXYt5QFr26-54" value="&lt;div style=&quot;color: #cccccc;background-color: #1f1f1f;font-family: JetBrains Mono,Consolas, &#39;Courier New&#39;, monospace, Consolas, &#39;Courier New&#39;, monospace;font-weight: normal;font-size: 14px;line-height: 19px;white-space: pre;&quot;&gt;&lt;div style=&quot;line-height: 19px;&quot;&gt;&lt;span style=&quot;color: #9cdcfe;&quot;&gt;currentRightX&lt;/span&gt; &lt;span style=&quot;color: #d4d4d4;&quot;&gt;+&lt;/span&gt; &lt;span style=&quot;color: #9cdcfe;&quot;&gt;deltaX&lt;/span&gt; &lt;span style=&quot;color: #d4d4d4;&quot;&gt;&amp;gt;=&lt;/span&gt; &lt;span style=&quot;color: rgb(156, 220, 254);&quot;&gt;leftSplicingLine&lt;/span&gt;-&amp;gt;&lt;span style=&quot;color: rgb(220, 220, 170);&quot;&gt;line&lt;/span&gt;().&lt;span style=&quot;color: rgb(220, 220, 170);&quot;&gt;x1&lt;/span&gt;()&lt;br&gt;&lt;/div&gt;&lt;/div&gt;" style="text;whiteSpace=wrap;html=1;" vertex="1" parent="1">
          <mxGeometry x="3147" y="1250" width="500" height="40" as="geometry" />
        </mxCell>
        <mxCell id="2hVYgdQiKfmXYt5QFr26-55" value="&lt;div style=&quot;color: #cccccc;background-color: #1f1f1f;font-family: JetBrains Mono,Consolas, &#39;Courier New&#39;, monospace, Consolas, &#39;Courier New&#39;, monospace;font-weight: normal;font-size: 14px;line-height: 19px;white-space: pre;&quot;&gt;&lt;div style=&quot;line-height: 19px;&quot;&gt;&lt;span style=&quot;color: #d4d4d4;&quot;&gt;&lt;span style=&quot;color: rgb(156, 220, 254);&quot;&gt;currentLeftX&lt;/span&gt;&lt;span style=&quot;color: rgb(204, 204, 204);&quot;&gt; &lt;/span&gt;+&lt;/span&gt; &lt;span style=&quot;color: #9cdcfe;&quot;&gt;deltaX&lt;/span&gt; &amp;lt;&lt;span style=&quot;color: #d4d4d4;&quot;&gt;=&lt;/span&gt; &lt;span style=&quot;color: rgb(156, 220, 254);&quot;&gt;rightSplicingLine&lt;/span&gt;-&amp;gt;&lt;span style=&quot;color: rgb(220, 220, 170);&quot;&gt;line&lt;/span&gt;().&lt;span style=&quot;color: rgb(220, 220, 170);&quot;&gt;x1&lt;/span&gt;()&lt;br&gt;&lt;/div&gt;&lt;/div&gt;" style="text;whiteSpace=wrap;html=1;" vertex="1" parent="1">
          <mxGeometry x="3535" y="1070" width="500" height="40" as="geometry" />
        </mxCell>
        <mxCell id="2hVYgdQiKfmXYt5QFr26-56" value="&lt;div style=&quot;color: #cccccc;background-color: #1f1f1f;font-family: JetBrains Mono,Consolas, &#39;Courier New&#39;, monospace, Consolas, &#39;Courier New&#39;, monospace;font-weight: normal;font-size: 14px;line-height: 19px;white-space: pre;&quot;&gt;&lt;div&gt;&lt;span style=&quot;color: rgb(220, 220, 170);&quot;&gt;&lt;span style=&quot;color: rgb(156, 220, 254);&quot;&gt;currentLeftX&lt;/span&gt;&lt;span style=&quot;color: rgb(204, 204, 204);&quot;&gt; &lt;/span&gt;&lt;span style=&quot;color: rgb(212, 212, 212);&quot;&gt;+&lt;/span&gt;&lt;span style=&quot;color: rgb(204, 204, 204);&quot;&gt; &lt;/span&gt;&lt;span style=&quot;color: rgb(156, 220, 254);&quot;&gt;deltaX&lt;/span&gt;&lt;span style=&quot;color: rgb(204, 204, 204);&quot;&gt; &lt;/span&gt;&lt;span style=&quot;color: rgb(212, 212, 212);&quot;&gt;&amp;lt;=&lt;/span&gt;&lt;span style=&quot;color: rgb(204, 204, 204);&quot;&gt; &lt;/span&gt;&lt;span style=&quot;color: rgb(156, 220, 254);&quot;&gt;leftSplicingLine&lt;/span&gt;&lt;span style=&quot;color: rgb(204, 204, 204);&quot;&gt;-&amp;gt;&lt;/span&gt;line&lt;span style=&quot;color: rgb(204, 204, 204);&quot;&gt;().&lt;/span&gt;x1&lt;span style=&quot;color: rgb(204, 204, 204);&quot;&gt;()&lt;/span&gt;&lt;/span&gt;&lt;/div&gt;&lt;div&gt;&lt;div style=&quot;line-height: 19px;&quot;&gt;&lt;span style=&quot;color: #dcdcaa;&quot;&gt;moveElementsRight&lt;/span&gt;(&lt;span style=&quot;color: #9cdcfe;&quot;&gt;currentRightX&lt;/span&gt;, &lt;span style=&quot;color: #9cdcfe;&quot;&gt;deltaX&lt;/span&gt;);&lt;/div&gt;&lt;/div&gt;&lt;/div&gt;" style="text;whiteSpace=wrap;html=1;" vertex="1" parent="1">
          <mxGeometry x="3760" y="1130" width="500" height="40" as="geometry" />
        </mxCell>
        <mxCell id="2hVYgdQiKfmXYt5QFr26-57" value="&lt;div style=&quot;color: #cccccc;background-color: #1f1f1f;font-family: JetBrains Mono,Consolas, &#39;Courier New&#39;, monospace, Consolas, &#39;Courier New&#39;, monospace;font-weight: normal;font-size: 14px;line-height: 19px;white-space: pre;&quot;&gt;&lt;div&gt;&lt;span style=&quot;color: rgb(220, 220, 170);&quot;&gt;&lt;span style=&quot;color: rgb(156, 220, 254);&quot;&gt;currentLeftX&lt;/span&gt;&lt;span style=&quot;color: rgb(204, 204, 204);&quot;&gt; &lt;/span&gt;&lt;span style=&quot;color: rgb(212, 212, 212);&quot;&gt;+&lt;/span&gt;&lt;span style=&quot;color: rgb(204, 204, 204);&quot;&gt; &lt;/span&gt;&lt;span style=&quot;color: rgb(156, 220, 254);&quot;&gt;deltaX&lt;/span&gt;&lt;span style=&quot;color: rgb(204, 204, 204);&quot;&gt; &lt;/span&gt;&lt;span style=&quot;color: rgb(212, 212, 212);&quot;&gt;&amp;lt;=&lt;/span&gt;&lt;span style=&quot;color: rgb(204, 204, 204);&quot;&gt; &lt;/span&gt;&lt;span style=&quot;color: rgb(156, 220, 254);&quot;&gt;leftSplicingLine&lt;/span&gt;&lt;span style=&quot;color: rgb(204, 204, 204);&quot;&gt;-&amp;gt;&lt;/span&gt;line&lt;span style=&quot;color: rgb(204, 204, 204);&quot;&gt;().&lt;/span&gt;x1&lt;span style=&quot;color: rgb(204, 204, 204);&quot;&gt;()&lt;/span&gt;&lt;/span&gt;&lt;/div&gt;&lt;div&gt;&lt;div style=&quot;line-height: 19px;&quot;&gt;&lt;span style=&quot;color: rgb(220, 220, 170);&quot;&gt;moveElementsLeft&lt;/span&gt;(&lt;span style=&quot;color: rgb(156, 220, 254);&quot;&gt;currentLeftX&lt;/span&gt;, &lt;span style=&quot;color: rgb(156, 220, 254);&quot;&gt;deltaX&lt;/span&gt;);&lt;br&gt;&lt;/div&gt;&lt;/div&gt;&lt;/div&gt;" style="text;whiteSpace=wrap;html=1;" vertex="1" parent="1">
          <mxGeometry x="4045" y="1180" width="500" height="40" as="geometry" />
        </mxCell>
        <mxCell id="2hVYgdQiKfmXYt5QFr26-58" value="&lt;div style=&quot;background-color: rgb(31, 31, 31); font-family: &amp;quot;JetBrains Mono&amp;quot;, Consolas, &amp;quot;Courier New&amp;quot;, monospace, Consolas, &amp;quot;Courier New&amp;quot;, monospace; font-weight: normal; font-size: 14px; line-height: 19px; white-space: pre; color: rgb(204, 204, 204);&quot;&gt;&lt;div style=&quot;line-height: 19px;&quot;&gt;&lt;div style=&quot;&quot;&gt;&lt;span style=&quot;color: rgb(220, 220, 170);&quot;&gt;&lt;span style=&quot;color: rgb(156, 220, 254);&quot;&gt;currentLeftX&lt;/span&gt;&lt;span style=&quot;color: rgb(204, 204, 204);&quot;&gt; &lt;/span&gt;&lt;span style=&quot;color: rgb(212, 212, 212);&quot;&gt;+&lt;/span&gt;&lt;span style=&quot;color: rgb(204, 204, 204);&quot;&gt; &lt;/span&gt;&lt;span style=&quot;color: rgb(156, 220, 254);&quot;&gt;deltaX&lt;/span&gt;&lt;span style=&quot;color: rgb(204, 204, 204);&quot;&gt; &amp;lt;&lt;/span&gt;&lt;span style=&quot;color: rgb(204, 204, 204);&quot;&gt;&lt;font color=&quot;#d4d4d4&quot;&gt;=&lt;/font&gt;&lt;/span&gt;&lt;span style=&quot;color: rgb(204, 204, 204);&quot;&gt; &lt;/span&gt;&lt;span style=&quot;color: rgb(156, 220, 254);&quot;&gt;leftSplicingLine&lt;/span&gt;&lt;span style=&quot;color: rgb(204, 204, 204);&quot;&gt;-&amp;gt;&lt;/span&gt;&lt;font color=&quot;#dcdcaa&quot;&gt;line&lt;/font&gt;&lt;span style=&quot;color: rgb(204, 204, 204);&quot;&gt;().&lt;/span&gt;&lt;font color=&quot;#dcdcaa&quot;&gt;x1&lt;/font&gt;&lt;span style=&quot;color: rgb(204, 204, 204);&quot;&gt;()&lt;/span&gt;&lt;/span&gt;&lt;/div&gt;&lt;div style=&quot;color: rgb(204, 204, 204);&quot;&gt;&lt;/div&gt;&lt;/div&gt;&lt;/div&gt;" style="text;whiteSpace=wrap;html=1;" vertex="1" parent="1">
          <mxGeometry x="4226" y="1250" width="500" height="40" as="geometry" />
        </mxCell>
        <mxCell id="2hVYgdQiKfmXYt5QFr26-71" style="edgeStyle=orthogonalEdgeStyle;shape=connector;rounded=0;orthogonalLoop=1;jettySize=auto;html=1;entryX=0.5;entryY=0;entryDx=0;entryDy=0;strokeColor=default;align=center;verticalAlign=middle;fontFamily=Helvetica;fontSize=11;fontColor=default;labelBackgroundColor=default;endArrow=classic;" edge="1" parent="1" source="2hVYgdQiKfmXYt5QFr26-69" target="TPMHrRKmsCWebkbTURFH-3">
          <mxGeometry relative="1" as="geometry" />
        </mxCell>
        <mxCell id="2hVYgdQiKfmXYt5QFr26-72" style="edgeStyle=orthogonalEdgeStyle;shape=connector;rounded=0;orthogonalLoop=1;jettySize=auto;html=1;entryX=0.5;entryY=0;entryDx=0;entryDy=0;strokeColor=default;align=center;verticalAlign=middle;fontFamily=Helvetica;fontSize=11;fontColor=default;labelBackgroundColor=default;endArrow=classic;" edge="1" parent="1" source="2hVYgdQiKfmXYt5QFr26-69" target="2hVYgdQiKfmXYt5QFr26-3">
          <mxGeometry relative="1" as="geometry" />
        </mxCell>
        <mxCell id="2hVYgdQiKfmXYt5QFr26-69" value="拼接" style="rounded=0;whiteSpace=wrap;html=1;" vertex="1" parent="1">
          <mxGeometry x="2440" y="170" width="120" height="60" as="geometry" />
        </mxCell>
      </root>
    </mxGraphModel>
  </diagram>
</mxfile>
